<svg xmlns="http://www.w3.org/2000/svg" viewBox="0 0 458.98 458.98"><defs><style>.cls-1{opacity:0.33;}.cls-2{fill:#2e4242;}.cls-3{fill:#96bf9f;}.cls-4{fill:#498467;}</style></defs><g id="Blog_Avatar" data-name="Blog Avatar"><rect class="cls-2" width="458.98" height="458.98"/><path class="cls-3" d="M186.54,231.33c-.12-.84-.26-1.71-.4-2.59-38.91,3.43-78.92,19.17-78.92,19.17s36.25,30.18,52.7,49.32c20.92,24.34,64,47.3,92.73,28.11C216.49,314.4,191.88,267.59,186.54,231.33Z"/><path class="cls-4" d="M295.68,270.09c-2.92-6.44-12.4-15.51-23.88-19-8.5-2.56-32-3.38-32-3.38s11.11-3,18.62-3.3A50.91,50.91,0,0,1,284.51,250s-.9-2.23-13.41-20.11c-15.64-22.34-59.22-52.51-59.22-52.51s49.63,28.48,72.35,54.61c19.33,22.24,33.56,53.31,40.12,69.24,20.92-17.37,30.17-55.66-6.36-100.66-38.57-47.49-146.47-68.12-146.47-68.12s19.07,59,23.9,91.8c7.48,50.83,52.86,122.43,114.84,86.78C306.59,298.22,300.55,280.81,295.68,270.09Z"/></g></svg>