<svg xmlns="http://www.w3.org/2000/svg" viewBox="0 0 458.98 458.98"><defs><style>.cls-1{opacity:0.33;}.cls-2{fill:#2e4242;}.cls-3{opacity:0.5;}.cls-4,.cls-5{fill:#498467;}.cls-4{opacity:0.52;}.cls-5{opacity:0.6;}.cls-11,.cls-6,.cls-9{fill:#d9e0d5;}.cls-6{opacity:0.42;}.cls-7{fill:#fff;}.cls-8{opacity:0.76;}.cls-9{opacity:0.57;}.cls-10{opacity:0.53;}</style></defs><g id="Blog_Avatar" data-name="Blog Avatar"><rect class="cls-2" width="458.98" height="458.98"/><g class="cls-3"><path class="cls-4" d="M163.55,269.52A3.13,3.13,0,0,1,165,266a23.72,23.72,0,0,1,7-2.82c.7,0,2.11,0,2.11-.7s2.82-1.41,5.65-.71,4.93,2,4.23,5.22,1,4.94.13,5.86-2.95,1.62-3.66.91-1.41-1.41-2.12-.71-2.9,4.07-4.27,4.86a5.25,5.25,0,0,1-5.6-.62A22.23,22.23,0,0,1,164.6,272,23.45,23.45,0,0,0,163.55,269.52Z"/><path class="cls-4" d="M158.61,343.57c-1.12-1.12-.67-4.24,1.43-5.65s4.21-3.52,5.62-2.82.71,2.12,1.41,2.12,7,.61,8.45,2.07,2.13,7.1.72,8.51-2.12,3.52-3.53,2.82-4.23-3.53-5.64-2.12-4.23,3.53-5.64,3.53-2.82-2.12-2.82-3.53S160,346.39,160,345,159.31,344.27,158.61,343.57Z"/><path class="cls-4" d="M74.69,203.23c1.58,0,6.35-.71,7.76,1.41s1.41,5.53,0,6.64,0,3.23-2.82,2.53-7.06-.71-7.76-1.41-.71-4.11,0-5.58S74,203.23,74.69,203.23Z"/><path class="cls-4" d="M143.09,197.59c2.12-1.41,4.94-1.41,6.35-2.82s6.81-.71,6.23,1.41-1.45,5.45,0,7.66,2.9,2.91,5.72,2.21a3.17,3.17,0,0,1,4.23,2.82c0,1.41,1.41,5.59,0,7.38s-2.82,3.2-4.94,2.49-2.82-4.23-4.93-4.23-7,.71-9.87,0-5.06-3.5-4.65-6,2.53-4.6,1.82-6S141,199,143.09,197.59Z"/><path class="cls-4" d="M41.54,254.71c-.7-2.12-1.41-6.35.71-8.46s3.52-.71,4.94-.71,2.36-.92,2.94-.46.58,1.87,2.7,1.87,2.82,2.12,2.82,3.53-2,7-3.13,7-2.51-3.19-4.28-3.36-1.05,1.24-2.47,2S42.25,256.83,41.54,254.71Z"/><path class="cls-4" d="M43,280.1c.71,1.41,6.35,4.93,7.06,6.34s2.82,15.52,2.82,16.93.7,7.76-1.41,10.58-6.35,7.75-4.94,9.87S52.12,333,54.24,333A11.79,11.79,0,0,0,62,330.87c1.45-1.08,4.82-2.67,6.35,1.41,2.12,5.64-3.52,12,1.41,15.52,1.81,1.29,5.64,1.05,11.29-2.82,1.28-.88,5.84,2.2,6.56,3.31,2,3,3.57,5.15,4.72,5.15A8.29,8.29,0,0,0,97.26,352a4.89,4.89,0,0,1,2.23-1c4.11-.45,6.38.83,8.07.89s9,.64,11.67,0,9.76.77,10.47,1.48,5.33.35,7.6-1.23,9.32-3,12.14-3,6.19-.64,6.62-3.5-.27-6.38,1.84-9.2,9.88-7.05,12-7.75,6.35-2.12,7.05-3.53a4.29,4.29,0,0,0,0-4.14c-.7-1.5,0-2.91,0-4.32a47.17,47.17,0,0,0-.7-9.17c-.71-2.82-2.12-2.82-1.41-5.64s3.52-4.94,4.94-6.35,4.23-4.93,4.23-7.05-1.41-4.23-2.82-5.64-2.69-1.41-4.17,0-3.59,3.52-5,3.52-4.94,1.41-5.64.71.7-.71,0-2.12a13.24,13.24,0,0,0-4.24-4.93c-2.11-1.41-4.93-7.76-5.64-9.17s-2.11-3.53-2.11-4.94,5.64-6.34,7.75-7.75,7.06-3.53,8.47-6.35,2.11-7,.7-9.17-2.82-6.35-4.23-7.76-7.76-4.93-10.58-5.64-9.87-4.23-11.28-6.35S136,212.4,135.34,212.4s-4.23-7.06-4.94-7.76-4.23-7-4.23-8.46-2.12-6.35-4.94-7.06a63.56,63.56,0,0,1-9.17-3.52c-1.41-.71-4.2-2.82-6.33,0s-6.31,7.05-7.74,7.75-5.67,8.47-6.38,10.58S87.38,218,87.38,220.15s.71,5.65-1.41,4.94-4.23-2.82-9.87-2.12-12.69,2.12-14.81,2.12-5.64,1.41-6.35,3.53.71,7,2.12,8.46,1.57,4.94,2.9,6.7,7.68,5.29,8.38,6.7a25.91,25.91,0,0,1,1.41,6.35c0,.7.71,2.11-2.82,1.41s-6.35-2.12-7.76-1.41-3.52,2.82-3.52,4.93-2.12,5.64-3.53,6.35-5.64,6.35-7,7.05S42.25,278.69,43,280.1ZM143.8,242.72c.7-.7,2.82-.7,2.82-1.41s-1.41-2.12,0-2.12c0,0,4.94,0,6.35.71s.7,3.53,0,3.88.22,2.43.81,2.45-2.11,2.24-3.58,2.18-.76-2.87-2.17-2.87-3.14.78-4,.39S143.09,243.43,143.8,242.72Zm-83,38.08c.53-.7,1.94-.7,2.65-1.41s1.41-3.52.7-4.23.71-2.82.71-2.12.7,2.83,1.41,2.83a30.75,30.75,0,0,1,5.11.64,12,12,0,0,1,2.22.86c-.28-.09,0,5.2,0,5.2a18.29,18.29,0,0,0-3.13-.36c-1.41,0-4.34,3.56-4.64,3.55a2.37,2.37,0,0,1-1.71-.73c-.7-.7-1.11-1.85-2-1.63S60.22,281.51,60.76,280.8Z"/><path class="cls-5" d="M118.41,287.15s7.17-2.08,8.17-1.39-.41,4.21.29,4.92,2.51,2.82,4.08,0,2.76-7.36,3.58-7.91a27.4,27.4,0,0,1,6.69-2.39c1.87-.28,8.22.42,8.93,1.83s-1.41,3.53-4.23,3.53-4.24,0-5.65,2.11-5.9,4.27-4.36,4.25,4.85-.41,5.31.49,1.17,1.61,4,.91,5.64-.71,7,2.11,2.12,4.23,2.12,5.64,2.85,1.41,5.66,0,4.39,0,5.36-1.05,2.27-3.18,2.68-3.53,1.81-4.58,3.93-3.88,4.32,2.12,3.22,3.88-5.34,4.58-3.93,6.7,4.23,4.94,3.53,7.05-1.85,7.78-.93,9.18,1.9,4.8,0,4.86-7.53-.64-8.94-.64-7.54.54-7,2-.81,4.32-2.93,4.32-4.93.7-5.64,3.52.71,6.42-.7,8.15-1.73,1.59-4.39,1.66-2-2.05-5.49-1.34a19.68,19.68,0,0,0-8.21,3.55c-1.66,1.38-5.19,2.09-8,2.09s-4.15.87-7,.79a28.94,28.94,0,0,1-9.56-2.88c-1.06-.73,2.47-2.85,3.88-4.26s7-.09,8.09-2.16-.33-10.53-3.15-9.12-5.49,5.12-7.33,4.32-1.84-3.62-4.66-3.62-7.06-.7-7.76.71,0,3.51,2.85,3.87,2.79,5.3-.73,5.3-6.89,1.27-6.62,2.75,1.81,3.8,0,3.7a7.19,7.19,0,0,1-6-3.7c-1.43-2.75-5-1.34-7.78-2.75a6.77,6.77,0,0,1-3.52-6.35c0-2.12,2.82-4.94-.71-5.64s-7.75-.71-11.28-1.41A8.35,8.35,0,0,1,54.94,321c-.7-2.82-1.06-5,0-6.54s-1.06-6.51,1.77-7.92,4.23,0,7,.71,3.52,4.23,4.93,6,5.93.35,7.55-.71,4.62-.35,7.35,0,4.15,2.48,5.56,1.06,2.82-6.34,1.41-7S85.62,303,84.21,303s-2.41-1.28-1.91-3.82,1.91-3.24,1.91-4.65-2.86-2.11-3.9-4.93.37-12,1.78-14.11,4.51-8.06,7.2-8.61,3.7-.22,2.84,2.08-1.1,5.77.78,5.45,6.34.33,6.93,3.17-.82,7.79-.82,9.2-2,5.62-.64,6.69a24.2,24.2,0,0,0,4.67,3.18,35.76,35.76,0,0,1,5,2.53c1.53,1-.36,4.53,1.29,4.88s2.87-.73,4-2,4.59-3.33,2.87-5.45-3.13-4.94-2.42-6.35A7.28,7.28,0,0,1,118.41,287.15Z"/><path class="cls-5" d="M104.84,272c2.82-.63,3.89-1.06,5.56,0s5.19,1.05,5.9,1.76,0,5.62-1.4,6.33-2.52,2.57-5.5,3.06-4.39.48-4.39-1.63,2-3.77,1.71-4.35-3.12-2-3.12-2.7S103.25,272.34,104.84,272Z"/><path class="cls-5" d="M62.24,289.62a14.91,14.91,0,0,1,6.1-1.06c1.41,0,2.13-2.12,3.53,0s1.41,4.23,2.82,4.94,5-.71,4.63,3.17-3.22,6-5.34,6-2.82,3.53-4.23,3.53-4.23-.71-4.23-2.82,1.43-3.4-.69-4.17-4.19-.3-4.57-2.3S59.67,290.68,62.24,289.62Z"/><path class="cls-5" d="M114.18,242c0-2.83.71-6.35,4.23-6.35s2.82,1.41,4.94,1.41,2.82-1.41,5.64,0,4.23,2.11,4.23,4.23-.7,6.35.71,7.05,7.62,1,8.39,3.33,2.18,3.72,1.48,5.14-3.53,2.82-4.94,2.11-1.41,1.41-3.52,2.82-3.53,3.53-5.64,2.82-1.52-5.64-2.53-7.05-.3-2.12-5.23-2.12-7.24.17-8.56,1.15-2.73,3.09-4.84,3.09-5.64-1.41-5.64-3.53-1.41-3.53-.71-4.23-1.08-1.27,3.34-1.69,2.3-1.84,5.12-3.25S114.18,244.13,114.18,242Z"/><path class="cls-6" d="M143.8,199.7c1.58,0,3.53-1.41,4.94-1.41a3.69,3.69,0,0,1,2.82,1.41c.7.71,0,2.82-.71,4.23s3.53.71,3.53,2.12-3.53,3.37-5.29,2.39-3.17-.27-3.17,1.14-2.83,2.11-4.24,1.41-.21-4.66-.46-6.21-1.65-.85-3.06-3-1.41-3.53.7-3.53S142.39,199.7,143.8,199.7Z"/><path class="cls-6" d="M123,225.08c2.9-1.91,3.88-2.81,6-2.11s1.25,0,3.45,2.11-2,2.13-2,4.24,2.12,2.12,0,2.82-6.35,2.12-6.35-.7-1.86-2.73-2.34-3.48S121.93,225.78,123,225.08Z"/><path class="cls-6" d="M78.92,233.55c3.8,0,4.94-.7,4.94.71s2.34.74,2.93.72,1.47-1.57,2.79-1.85S93.1,235,94.12,235s-.39,1.24-2.15,2-1.12,3.3,0,4.87,3.26,1.15,2.52,3.47-.94,6.78-3.3,6.66-2.91-.11-3.35-1.17a3.32,3.32,0,0,1,1-3.17c.71-.71-.76-2-2.5-2.78s-1,1.37-3.14.66-2.82-2.81-4.23-3.87-1.41-1.08,0-2.49-2.12-2.92-1.76-3.57S78.21,233.55,78.92,233.55Z"/><path class="cls-6" d="M117.34,264.72c2-.15,5.17,1.21,7.35,1.94s-.55,2.31-.59,3.29-.95,2.39,2.68,2,4.11-1.43,7.75-3,5.61,0,7.79,1,1.17,1.4,1,2.95-.9,1.56-3,2.26-2,1.6-3.1,3.27-9.48,4.49-10.59,2.37.29-3.33-2.88-2.37-1.47,2.47-3.38,3.13-2.56-.57-1.88-3.13,2.79-3.27,1.38-4.68-2-3.19-4.19-4.77S115.57,264.86,117.34,264.72Z"/><path class="cls-6" d="M75.42,283.4c4.21,3,6.32-1.44,8.08-1.67s3,1.22,3.43,4-1,5.69-3.43,6-4.42-.14-4.15,1.85-2.55,2-4.66,1.29-1.61-4.23-2.22-5.29-3.57-3.14-2.08-3.86S75.23,283.27,75.42,283.4Z"/><path class="cls-6" d="M95.84,215.22c2.24-2.23,6.35-1.41,7.06-4.94s.69-3.83,3.51-4.38,5.92.7,5.43,4.66-.11,1.92,1.82,1.53,4.08-2.32,4.77-.66,4.92,4.07,2.8,7.1-7.75,4.44-8.46,5.15-.22,1.45,1.3,4.25-2,2.1-3.42,2.8-2.66,2.63-3.09.61-.1-4.1-2-3.41-1.25,3.65-4.76,2.17-5.49-3.79-2.39-5.81-1.83-4.56-2.54-5.76S94.43,216.63,95.84,215.22Z"/><path class="cls-7" d="M100.52,416.53c-.22-1.07-.36-1.93-.5-2.88s-.26-1.85-.36-2.79c-.19-1.86-.31-3.73-.34-5.63a49.83,49.83,0,0,1,.3-5.81c.15-1,.28-2,.52-3a14.51,14.51,0,0,1,.38-1.51l.43-1.43a29.2,29.2,0,0,0,1-4.43c.29-1.61.52-3.27.74-4.95.43-3.38.76-6.81,1.22-10.36.12-.89.25-1.79.42-2.73a17.6,17.6,0,0,1,.83-3.25,8.93,8.93,0,0,0,.3-.87c.1-.35.2-.68.29-1.09.19-.77.35-1.58.51-2.39.63-3.29,1.12-6.67,1.54-10.05s.73-6.79.88-10.13c0-.84,0-1.67,0-2.49s0-1.55-.07-2.43l-.35-5.17-.78-10.37-.09-1.34a12.88,12.88,0,0,1,0-1.54c.06-.93.15-1.8.24-2.66.17-1.72.33-3.4.41-5.08a32.77,32.77,0,0,0-.81-9.82,18.19,18.19,0,0,0-1.79-4.45,16.21,16.21,0,0,0-1.35-2l-1.62-2c-2.17-2.67-4.44-5.27-6.7-7.92-1.13-1.32-2.25-2.65-3.33-4.05a17.67,17.67,0,0,1-2.79-4.63,12.79,12.79,0,0,1-.38-2.7c-.07-.88-.11-1.75-.16-2.61-.08-1.74-.15-3.47-.26-5.19a23.85,23.85,0,0,0-.73-5.08,4.45,4.45,0,0,0-.6-1.11c-.24-.36-.48-.72-.74-1.06a24.39,24.39,0,0,0-1.63-2A22.77,22.77,0,0,1,87,259.45c.28.34.55.68.81,1a4.78,4.78,0,0,1,.7,1.13,24,24,0,0,1,1,5.13c.22,1.73.39,3.46.57,5.18.1.86.19,1.71.3,2.56a13.64,13.64,0,0,0,.48,2.42A17,17,0,0,0,93.75,281c1.12,1.29,2.31,2.54,3.5,3.79,2.4,2.49,4.84,5,7.2,7.54l1.76,1.94a17.84,17.84,0,0,1,1.7,2.22,20.68,20.68,0,0,1,2.38,5,36.08,36.08,0,0,1,1.55,10.75c0,1.79,0,3.57-.11,5.3,0,.87-.07,1.73-.08,2.53a10.26,10.26,0,0,0,0,1.05l.15,1.25,1.4,10.3.66,5.19a50.48,50.48,0,0,1,.34,5.46c.06,3.58-.08,7.1-.29,10.62s-.52,7-1,10.58c-.12.9-.25,1.79-.42,2.72-.07.45-.19,1-.29,1.44s-.35,1.24-.46,1.62a17.36,17.36,0,0,0-.3,1.81c-.08.78-.16,1.6-.22,2.43l-.6,10.35c-.12,1.77-.26,3.55-.47,5.37a40.26,40.26,0,0,1-1,5.75c-.09.3-.1.41-.14.58l-.11.5a8,8,0,0,0-.18,1c-.12.69-.16,1.43-.23,2.16a41.47,41.47,0,0,0,.08,4.58c.14,1.56.34,3.14.61,4.71.14.79.29,1.57.46,2.35s.37,1.6.55,2.21Z"/><path class="cls-7" d="M103.52,382.81c-.89-3.37-1.85-6.78-2.9-10.09-.53-1.65-1.08-3.3-1.69-4.84a18.32,18.32,0,0,0-.92-2l-.14-.26a.3.3,0,0,0,.08.07c-.14-.14-.35-.35-.48-.51a7.58,7.58,0,0,1-1.07-1.78,29.93,29.93,0,0,1-1.61-5.68c-.36-1.78-.66-3.56-1-5.18-.09-.39-.19-.79-.28-1.09a1.45,1.45,0,0,1-.08-.27c0,.07-.06-.12-.13-.24s-.16-.27-.22-.39a16.29,16.29,0,0,1-1.1-2.88,22.69,22.69,0,0,1-.86-5.76,22.32,22.32,0,0,1,.63-5.76,51,51,0,0,1,1.7-5.24c1.22-3.35,2.68-6.61,2.87-9.9a8.16,8.16,0,0,0-.23-2.41L95.4,316c-.46-1.72-.93-3.45-1.34-5.19a46.93,46.93,0,0,1-1-5.29,12.23,12.23,0,0,1,.3-5.32,11.94,11.94,0,0,0,.16,5.25A47.76,47.76,0,0,0,95,310.56c.55,1.68,1.16,3.35,1.77,5l.9,2.54a10.19,10.19,0,0,1,.53,2.85,21.31,21.31,0,0,1-.67,5.57c-.42,1.78-.94,3.5-1.41,5.2a46.2,46.2,0,0,0-1.17,5,18.77,18.77,0,0,0,1,9.56,11.86,11.86,0,0,0,1,2l.13.19.21.32a6.49,6.49,0,0,1,.48.95c.22.53.37,1,.52,1.45.57,1.82,1,3.53,1.5,5.19a25.06,25.06,0,0,0,1.66,4.47,1.66,1.66,0,0,0,.35.48l0,0a5.55,5.55,0,0,1,.54.55l.36.44.27.4a23.49,23.49,0,0,1,1.48,2.72c.81,1.73,1.5,3.42,2.17,5.12,1.33,3.4,2.52,6.77,3.67,10.22Z"/><path class="cls-7" d="M91.67,336.13a80.65,80.65,0,0,0-5.21-12.55A17.22,17.22,0,0,0,84.7,321a23.78,23.78,0,0,0-2.43-2.21c-1.77-1.42-3.65-2.77-5.54-4.13-.94-.68-1.89-1.36-2.83-2.08a17.11,17.11,0,0,1-2.75-2.45,3.18,3.18,0,0,1-.54-1,3.93,3.93,0,0,1-.16-1,7.7,7.7,0,0,1,.17-1.88c.22-1.19.58-2.31.88-3.42a14.6,14.6,0,0,0,.37-1.63,2.64,2.64,0,0,0,0-.38,1,1,0,0,0,0-.32,1.5,1.5,0,0,0-.13-.37l-.17-.41c-.42-1.09-.81-2.19-1.19-3.29s-.72-2.22-1-3.34a14.88,14.88,0,0,1-.66-3.42,15.07,15.07,0,0,0,.89,3.35c.39,1.09.82,2.16,1.27,3.23s.92,2.13,1.41,3.17l.19.39a2.58,2.58,0,0,1,.19.43,1.64,1.64,0,0,1,.1.54,2.67,2.67,0,0,1,0,.49,12.42,12.42,0,0,1-.27,1.79c-.23,1.15-.49,2.28-.62,3.38s-.14,2.24.46,2.76a15.89,15.89,0,0,0,2.61,2c1,.63,1.94,1.24,2.92,1.85,2,1.22,4,2.43,5.93,3.79A26,26,0,0,1,86.66,319,19.26,19.26,0,0,1,89,322a82.67,82.67,0,0,1,6.41,12.75Z"/><path class="cls-7" d="M109.79,338.25a52.06,52.06,0,0,1,5.14-6.7,19.08,19.08,0,0,1,1.65-1.56,8.21,8.21,0,0,1,2.15-1.25c1.31-.54,2.58-1,3.85-1.46a64.58,64.58,0,0,0,7.33-3,8.43,8.43,0,0,0,1.43-.93c.47-.45.93-.91,1.38-1.39a36.19,36.19,0,0,0,2.51-3,24.85,24.85,0,0,0,2.07-3.32c.15-.28.28-.58.41-.87l.44-.94c.29-.63.6-1.24.92-1.85.65-1.21,1.33-2.4,2.06-3.56a25.76,25.76,0,0,1,2.46-3.36,6.85,6.85,0,0,1,1.77-1.24c.61-.33,1.23-.62,1.85-.91,1.23-.57,2.48-1.11,3.71-1.65.62-.28,1.24-.55,1.83-.85a17.68,17.68,0,0,0,1.6-1.18l3.2-2.51-3,2.69a15.26,15.26,0,0,1-1.59,1.32c-.59.36-1.19.66-1.79,1-1.21.62-2.41,1.23-3.6,1.87-.59.32-1.18.65-1.74,1a6,6,0,0,0-1.47,1.16,23.88,23.88,0,0,0-2.12,3.33c-.64,1.17-1.24,2.37-1.79,3.58-.27.61-.54,1.22-.78,1.84l-.36.92c-.13.33-.25.67-.4,1a26.34,26.34,0,0,1-2,3.7,35.52,35.52,0,0,1-2.47,3.37c-.45.54-.9,1.07-1.39,1.58a9.29,9.29,0,0,1-1.86,1.42,64.91,64.91,0,0,1-7.46,3.65c-1.23.55-2.48,1.08-3.64,1.64a4.75,4.75,0,0,0-1.29.86,14.38,14.38,0,0,0-1.23,1.32,49.27,49.27,0,0,0-4.33,6.44Z"/><path class="cls-7" d="M136.24,317.46A8.48,8.48,0,0,0,136,313a8.53,8.53,0,0,1-.66-5.57,9.15,9.15,0,0,1,.36-1.34c.14-.42.38-.92.52-1.24a9.68,9.68,0,0,0,.66-2.3,14.4,14.4,0,0,0,.18-2.46c0-.41,0-.82-.06-1.22l0-.3,0-.4a5.65,5.65,0,0,1,.07-.73,9.52,9.52,0,0,1,2.46-4.77,8.66,8.66,0,0,1,2.13-1.64,5.2,5.2,0,0,0,1.44-1.86,21.91,21.91,0,0,1,1.4-2.2,6.93,6.93,0,0,1,.91-1,5.25,5.25,0,0,1,.53-.4,3.48,3.48,0,0,0,.48-.38,10.64,10.64,0,0,0,2.45-4.41,10.84,10.84,0,0,1-2.22,4.65,4.36,4.36,0,0,1-.51.44c-.15.14-.33.25-.47.4a6.53,6.53,0,0,0-.79.95,20.68,20.68,0,0,0-1.23,2.22,5.81,5.81,0,0,1-1.6,2.22,7.7,7.7,0,0,0-1.88,1.57,8.65,8.65,0,0,0-2,4.33,5.21,5.21,0,0,0,0,.55l0,.24.06.33c.06.45.11.9.13,1.34a15,15,0,0,1-.08,2.68,10.53,10.53,0,0,1-.64,2.66c-.18.47-.3.75-.42,1.15a7.61,7.61,0,0,0-.25,1.15,6.85,6.85,0,0,0,.68,4.44,7,7,0,0,1,.78,2.86,15.1,15.1,0,0,1-.05,2.77Z"/><path class="cls-7" d="M106.7,300.39c-.27-2.61-.44-5.18-.47-7.81a38.31,38.31,0,0,1,.17-4,14.7,14.7,0,0,1,.37-2.08,5.6,5.6,0,0,1,.17-.54,4.78,4.78,0,0,1,.2-.52l.38-.88c1-2.37,2.08-4.7,3.34-7a8.85,8.85,0,0,1,.57-.91,2.71,2.71,0,0,1,.42-.49l.35-.33,1.37-1.33c.91-.89,1.8-1.79,2.69-2.71a63.92,63.92,0,0,0,5-5.67,11.78,11.78,0,0,0,1-1.53,5.18,5.18,0,0,0,.4-1.68c.16-1.25.26-2.52.35-3.79.34-5.1.51-10.22.66-15.33.12,5.12.2,10.23.13,15.36,0,1.28-.06,2.56-.16,3.86a6,6,0,0,1-.4,2.05,14.67,14.67,0,0,1-1,1.74,66.58,66.58,0,0,1-4.84,6.06c-.85,1-1.71,1.93-2.58,2.87l-1.31,1.42a3.49,3.49,0,0,0-.52.59,7.07,7.07,0,0,0-.4.74c-1.07,2.23-2,4.63-2.9,7l-.33.89a2.52,2.52,0,0,0-.13.39c0,.11-.07.25-.1.37a11.21,11.21,0,0,0-.23,1.71,34.75,34.75,0,0,0,0,3.68c.12,2.49.39,5,.75,7.49Z"/></g><g class="cls-8"><path class="cls-4" d="M393.38,236.46a3.63,3.63,0,0,1,1.64-4.09,27.67,27.67,0,0,1,8.19-3.28c.82,0,2.46,0,2.46-.82s3.28-1.64,6.56-.82,5.73,2.29,4.91,6.06,1.14,5.75.16,6.81-3.44,1.88-4.26,1.06-1.63-1.64-2.45-.82-3.38,4.73-5,5.64-4.86.91-6.5-.73-4.1-4.91-4.51-6.14A27.3,27.3,0,0,0,393.38,236.46Z"/><path class="cls-4" d="M387.65,322.48c-1.3-1.29-.78-4.91,1.66-6.55s4.89-4.1,6.53-3.28.82,2.46,1.64,2.46,8.17.71,9.82,2.4,2.47,8.25.83,9.89-2.46,4.09-4.1,3.27-4.91-4.09-6.55-2.45-4.92,4.09-6.55,4.09-3.28-2.46-3.28-4.09,1.64-2.46,1.64-4.1S388.47,323.3,387.65,322.48Z"/><path class="cls-4" d="M290.16,159.46c1.83,0,7.37-.82,9,1.63s1.64,6.43,0,7.72,0,3.75-3.27,2.93-8.2-.82-9-1.63-.81-4.78,0-6.49S289.34,159.46,290.16,159.46Z"/><path class="cls-4" d="M369.63,152.9c2.45-1.64,5.73-1.64,7.37-3.28s7.91-.81,7.23,1.64-1.68,6.33,0,8.9,3.37,3.39,6.65,2.57a3.68,3.68,0,0,1,4.91,3.28c0,1.64,1.64,6.49,0,8.57s-3.28,3.72-5.73,2.9-3.28-4.92-5.74-4.92-8.19.82-11.47,0-5.87-4.06-5.39-6.94,2.94-5.35,2.12-7S367.17,154.54,369.63,152.9Z"/><path class="cls-4" d="M251.66,219.26c-.82-2.46-1.64-7.37.82-9.83s4.09-.82,5.73-.82,2.75-1.07,3.43-.54.67,2.18,3.13,2.18,3.27,2.46,3.27,4.09-2.36,8.2-3.64,8.2-2.91-3.71-5-3.9-1.23,1.44-2.87,2.26S252.48,221.72,251.66,219.26Z"/><path class="cls-4" d="M253.3,248.75c.82,1.64,7.37,5.74,8.19,7.37s3.28,18,3.28,19.67.81,9-1.64,12.28-7.38,9-5.74,11.47,6.56,10.65,9,10.65,5.74,0,9-2.45c1.67-1.26,5.59-3.11,7.37,1.63,2.46,6.56-4.1,13.93,1.64,18,2.1,1.5,6.55,1.22,13.1-3.28,1.49-1,6.79,2.56,7.63,3.85,2.32,3.55,4.14,6,5.48,6,2.46,0,4.92-.82,5.74-1.64A5.74,5.74,0,0,1,319,331.2c4.78-.53,7.42,1,9.38,1s10.41.74,13.56,0,11.33.89,12.15,1.71,6.2.41,8.84-1.43S373.72,329,377,329s7.19-.74,7.69-4-.32-7.41,2.14-10.69,11.47-8.19,13.93-9,7.37-2.46,8.19-4.1a5,5,0,0,0,0-4.81c-.82-1.74,0-3.38,0-5s0-7.37-.82-10.65-2.46-3.28-1.64-6.55,4.1-5.74,5.74-7.38,4.91-5.73,4.91-8.19-1.64-4.91-3.28-6.55-3.12-1.64-4.83,0-4.18,4.09-5.82,4.09-5.73,1.64-6.55.82.82-.82,0-2.45a15.37,15.37,0,0,0-4.92-5.74c-2.45-1.64-5.73-9-6.55-10.65s-2.46-4.1-2.46-5.73,6.56-7.38,9-9,8.2-4.09,9.84-7.37,2.45-8.19.81-10.65-3.27-7.37-4.91-9-9-5.73-12.29-6.55-11.47-4.92-13.11-7.38-10.65-12.28-11.47-12.28-4.91-8.2-5.73-9S350,152.9,350,151.26s-2.45-7.37-5.73-8.19a73,73,0,0,1-10.65-4.1c-1.64-.81-4.89-3.27-7.36,0s-7.33,8.19-9,9-6.58,9.84-7.4,12.29-4.91,16.39-4.91,18.85.82,6.55-1.64,5.73-4.92-3.28-11.47-2.46-14.75,2.46-17.2,2.46-6.56,1.64-7.38,4.1.82,8.19,2.46,9.83,1.83,5.73,3.37,7.78,8.92,6.15,9.74,7.78a30.43,30.43,0,0,1,1.64,7.38c0,.82.82,2.45-3.28,1.63s-7.37-2.45-9-1.63S268,225,268,227.45s-2.46,6.55-4.09,7.37-6.56,7.38-8.2,8.2S252.48,247.11,253.3,248.75Zm117.15-43.42c.81-.82,3.27-.82,3.27-1.64s-1.64-2.45,0-2.45c0,0,5.74,0,7.37.82s.82,4.09,0,4.5.26,2.83,1,2.85-2.46,2.6-4.16,2.54-.88-3.34-2.52-3.34-3.65.91-4.69.45S369.63,206.15,370.45,205.33ZM274,249.57c.62-.82,2.25-.82,3.07-1.64s1.64-4.09.82-4.91.82-3.28.82-2.46.82,3.28,1.64,3.28a35.79,35.79,0,0,1,5.94.74,13.71,13.71,0,0,1,2.58,1c-.33-.12,0,6,0,6a21.86,21.86,0,0,0-3.64-.41c-1.64,0-5.05,4.14-5.39,4.12a2.83,2.83,0,0,1-2-.84c-.82-.82-1.29-2.16-2.28-1.9S273.36,250.39,274,249.57Z"/><path class="cls-5" d="M341,256.94s8.33-2.41,9.49-1.61-.48,4.89.34,5.71,2.91,3.28,4.73,0,3.22-8.55,4.16-9.19a32.1,32.1,0,0,1,7.78-2.77c2.18-.33,9.55.49,10.37,2.13s-1.64,4.09-4.92,4.09-4.91,0-6.55,2.46-6.86,4.95-5.07,4.94,5.63-.48,6.17.57,1.36,1.87,4.63,1.05,6.56-.82,8.2,2.45,2.45,4.92,2.45,6.56,3.32,1.64,6.58,0,5.1,0,6.22-1.23,2.65-3.69,3.12-4.1,2.11-5.32,4.56-4.5,5,2.45,3.74,4.5-6.19,5.33-4.56,7.79,4.92,5.73,4.1,8.19-2.15,9-1.07,10.66,2.2,5.58,0,5.65-8.76-.75-10.4-.75-8.75.63-8.06,2.36-.95,5-3.41,5-5.73.82-6.55,4.09.82,7.45-.82,9.46-2,1.85-5.1,1.93-2.27-2.38-6.37-1.56a22.61,22.61,0,0,0-9.54,4.14c-1.93,1.6-6,2.42-9.3,2.42s-4.83,1-8.15.91-9.87-2.48-11.1-3.33,2.86-3.32,4.5-5,8.15-.1,9.4-2.51-.39-12.23-3.66-10.59-6.37,5.94-8.51,5-2.14-4.2-5.42-4.2-8.19-.82-9,.81.06,4.08,3.3,4.5,3.25,6.15-.84,6.15-8,1.48-7.69,3.2,2.11,4.42,0,4.3a8.35,8.35,0,0,1-7-4.3c-1.66-3.2-5.75-1.56-9-3.2s-4.1-4.91-4.1-7.37,3.28-5.73-.82-6.55-9-.82-13.1-1.64a9.7,9.7,0,0,1-7.38-7.37c-.82-3.28-1.23-5.78,0-7.6s-1.23-7.56,2-9.2,4.92,0,8.19.82,4.1,4.92,5.74,7,6.89.4,8.77-.83,5.35-.41,8.53,0,4.82,2.87,6.46,1.23,3.27-7.37,1.63-8.19-5.73-4.09-7.37-4.09-2.8-1.49-2.22-4.43,2.22-3.77,2.22-5.4-3.31-2.46-4.52-5.74.42-13.93,2.06-16.38,5.24-9.37,8.36-10,4.31-.26,3.3,2.42-1.28,6.7.91,6.32,7.37.39,8.05,3.69-1,9.05-1,10.68-2.29,6.54-.73,7.78a27,27,0,0,0,5.42,3.69,40.79,40.79,0,0,1,5.82,2.95c1.78,1.15-.41,5.26,1.51,5.66s3.33-.85,4.67-2.27,5.33-3.88,3.34-6.34-3.64-5.73-2.82-7.37A8.47,8.47,0,0,1,341,256.94Z"/><path class="cls-5" d="M325.18,239.33c3.28-.73,4.52-1.23,6.46,0s6,1.23,6.86,2,0,6.52-1.63,7.36-2.93,3-6.39,3.54-5.09.57-5.09-1.89,2.33-4.37,2-5-3.62-2.32-3.62-3.14S323.34,239.74,325.18,239.33Z"/><path class="cls-5" d="M275.71,259.81a17.27,17.27,0,0,1,7.08-1.23c1.64,0,2.47-2.46,4.1,0s1.63,4.92,3.27,5.74,5.85-.82,5.38,3.68-3.74,7-6.2,7-3.27,4.09-4.91,4.09-4.92-.82-4.92-3.27,1.66-4-.81-4.84-4.86-.35-5.3-2.67S272.72,261,275.71,259.81Z"/><path class="cls-5" d="M336,204.51c0-3.27.82-7.37,4.91-7.37s3.28,1.64,5.74,1.64,3.27-1.64,6.55,0,4.92,2.46,4.92,4.91-.82,7.38.82,8.2,8.85,1.17,9.75,3.86,2.53,4.33,1.72,6-4.1,3.27-5.74,2.45-1.64,1.64-4.1,3.28-4.09,4.1-6.55,3.28-1.76-6.56-2.93-8.19-.35-2.46-6.08-2.46-8.41.19-9.94,1.32-3.17,3.59-5.63,3.59-6.55-1.64-6.55-4.09-1.64-4.1-.82-4.92-1.25-1.47,3.88-2,2.67-2.13,5.95-3.77S336,207,336,204.51Z"/><path class="cls-9" d="M370.45,155.36c1.83,0,4.09-1.64,5.73-1.64a4.26,4.26,0,0,1,3.28,1.64c.82.82,0,3.28-.82,4.91s4.09.82,4.09,2.46-4.09,3.91-6.14,2.78-3.69-.32-3.69,1.32-3.27,2.46-4.91,1.64-.26-5.42-.54-7.22-1.92-1-3.56-3.43-1.64-4.1.82-4.1S368.81,155.36,370.45,155.36Z"/><path class="cls-9" d="M346.27,184.84c3.37-2.22,4.51-3.27,7-2.45s1.45,0,4,2.45-2.36,2.47-2.36,4.93,2.46,2.45,0,3.27-7.37,2.46-7.37-.82-2.16-3.17-2.72-4S345,185.66,346.27,184.84Z"/><path class="cls-9" d="M295.08,194.68c4.41,0,5.73-.82,5.73.82s2.72.87,3.41.84,1.7-1.82,3.24-2.15,4.09,2.18,5.28,2.15-.46,1.44-2.51,2.35-1.3,3.84,0,5.65,3.79,1.34,2.93,4-1.09,7.88-3.84,7.75-3.38-.14-3.88-1.37.32-2.86,1.14-3.68-.89-2.36-2.91-3.23-1.19,1.59-3.65.77-3.28-3.27-4.91-4.5-1.64-1.26,0-2.89-2.46-3.4-2.05-4.15S294.26,194.68,295.08,194.68Z"/><path class="cls-9" d="M339.71,230.89c2.28-.18,6,1.4,8.54,2.26s-.64,2.67-.69,3.81-1.1,2.78,3.11,2.37,4.78-1.66,9-3.49,6.53,0,9.06,1.12,1.36,1.63,1.13,3.43-1.05,1.81-3.51,2.63-2.28,1.86-3.6,3.79-11,5.22-12.31,2.76.34-3.88-3.34-2.76-1.71,2.88-3.93,3.64-3-.66-2.19-3.64,3.25-3.79,1.61-5.43-2.37-3.71-4.87-5.54S337.66,231.05,339.71,230.89Z"/><path class="cls-9" d="M291,252.59c4.89,3.53,7.34-1.68,9.39-1.94s3.46,1.42,4,4.68-1.11,6.61-4,7-5.14-.16-4.82,2.15-3,2.31-5.42,1.49-1.87-4.91-2.57-6.14-4.15-3.64-2.43-4.48S290.8,252.44,291,252.59Z"/><path class="cls-9" d="M314.74,173.38c2.59-2.59,7.37-1.64,8.19-5.73s.8-4.45,4.09-5.09,6.86.82,6.3,5.41-.13,2.23,2.11,1.77,4.75-2.69,5.54-.75,5.72,4.72,3.26,8.24-9,5.16-9.83,6-.26,1.69,1.51,4.94-2.33,2.44-4,3.26-3.09,3-3.59.7-.12-4.76-2.36-4-1.45,4.24-5.53,2.52-6.38-4.4-2.77-6.75-2.13-5.3-2.95-6.69S313.1,175,314.74,173.38Z"/><path class="cls-7" d="M320.41,408.89c.42-3.93.74-8,1-12,.1-2,.18-4,.2-5.94s0-3.92-.16-5.74a13.12,13.12,0,0,0-.13-1.32l-.19-1.45a28.3,28.3,0,0,1-.28-3.67,59.63,59.63,0,0,1,.42-6.65,112.25,112.25,0,0,1,2.31-12.54c.5-2.05,1-4.09,1.69-6.17.15-.51.35-1.06.52-1.59s.51-1.3.55-1.47a10.83,10.83,0,0,0,.35-1.14c.13-.41.22-.92.33-1.37.83-3.79,1.42-7.83,1.94-11.82s.91-8,1.14-12c.12-2,.17-4,.13-5.91,0-.92-.1-2-.19-3l-.23-3.07-.94-12.25-.22-3.09,0-.93c0-.3,0-.56,0-.84,0-.56.08-1.07.12-1.6.2-2.07.4-4.06.52-6.07a56.12,56.12,0,0,0,.07-5.94,34.11,34.11,0,0,0-.77-5.81,13.69,13.69,0,0,0-.36-1.4c-.15-.46-.25-.93-.43-1.38a20.52,20.52,0,0,0-1.15-2.63c-.23-.41-.43-.85-.69-1.25l-.81-1.18c-.52-.78-1.24-1.58-1.86-2.37-2.57-3.16-5.26-6.23-7.94-9.34-1.34-1.56-2.68-3.12-4-4.74a24.29,24.29,0,0,1-3.42-5.33,11.53,11.53,0,0,1-.59-3.18c-.08-1-.15-2-.2-3.08-.11-2.05-.19-4.09-.34-6.13-.07-1-.15-2-.28-3.05a15.45,15.45,0,0,0-.58-3,4.79,4.79,0,0,0-.68-1.33c-.28-.43-.58-.85-.88-1.26a29.45,29.45,0,0,0-1.94-2.37,26.32,26.32,0,0,1,2.06,2.28c.33.39.64.8.95,1.21a5.38,5.38,0,0,1,.79,1.36,16.78,16.78,0,0,1,.75,3c.18,1,.31,2,.44,3.06.24,2,.43,4.08.64,6.12.11,1,.22,2,.36,3a10.41,10.41,0,0,0,.66,2.82,23.09,23.09,0,0,0,3.46,4.81c1.34,1.52,2.74,3,4.15,4.48,2.83,3,5.69,5.91,8.46,9,.68.8,1.39,1.48,2.05,2.37l1,1.31c.33.44.58.92.87,1.39a23.39,23.39,0,0,1,1.46,2.92c.22.5.37,1,.56,1.53a13.94,13.94,0,0,1,.49,1.55,37.18,37.18,0,0,1,1.17,6.32,61.11,61.11,0,0,1,.25,6.33c0,2.1-.13,4.19-.21,6.2,0,.5,0,1,0,1.47,0,.23,0,.49,0,.7l0,.61.38,3,1.56,12.2.39,3.05c.13,1,.27,2,.35,3.14.17,2.18.21,4.29.19,6.38,0,4.2-.23,8.34-.54,12.49s-.71,8.26-1.41,12.52c-.11.55-.17,1.06-.31,1.64a16.18,16.18,0,0,1-.46,1.82l-.46,1.44c-.12.45-.25.87-.37,1.35-.48,1.85-.89,3.81-1.26,5.75a105.75,105.75,0,0,0-1.55,11.72,50.83,50.83,0,0,0-.08,5.63,21,21,0,0,0,.31,2.45l.3,1.58c.12.61.19,1.16.26,1.72.3,2.26.43,4.4.52,6.54s.11,4.24.11,6.34c0,4.22-.13,8.34-.37,12.58Z"/><path class="cls-7" d="M323.26,364.83c-1-3.76-2.09-7.6-3.34-11.26a38.91,38.91,0,0,0-2.06-5.1l-.25-.45-.1-.16,0-.06h0s0,0,0,0l-.27-.28a4.9,4.9,0,0,1-.45-.53,6.37,6.37,0,0,1-.61-1,17,17,0,0,1-1.29-3.33c-.6-2.09-1-4.09-1.38-6.07l-.58-2.91c-.1-.47-.21-.93-.32-1.37a8.83,8.83,0,0,0-.33-1.12c.09.06-.44-.78-.64-1.25a16,16,0,0,1-.65-1.58,24.45,24.45,0,0,1-.89-3.16,26.37,26.37,0,0,1-.53-6.44,25.55,25.55,0,0,1,1-6.31c.58-2,1.28-3.9,2-5.78s1.4-3.73,1.95-5.59a18.27,18.27,0,0,0,.91-5.6,11,11,0,0,0-.47-2.76l-.78-2.89c-.53-1.93-1.06-3.87-1.52-5.83a51.78,51.78,0,0,1-1.11-5.94,13.86,13.86,0,0,1,.33-6A13.7,13.7,0,0,0,312,278a52.13,52.13,0,0,0,1.53,5.77c.61,1.9,1.27,3.78,1.95,5.66l1,2.84a12.67,12.67,0,0,1,.75,3.1,20.13,20.13,0,0,1-.52,6.27c-.44,2-1,4-1.56,5.88s-1.09,3.82-1.49,5.71a22.33,22.33,0,0,0-.51,5.56,22.71,22.71,0,0,0,.87,5.45,20,20,0,0,0,.93,2.56c.18.4.37.79.57,1.15s.32.39.83,1.36A14,14,0,0,1,317,331c.18.53.33,1,.47,1.53l.82,2.93c.53,1.91,1.06,3.81,1.7,5.52a12.05,12.05,0,0,0,1,2.2,2.28,2.28,0,0,0,.22.28s0,.06,0,0h0l.26.25a9.66,9.66,0,0,1,1.36,1.76,43.23,43.23,0,0,1,2.84,5.84c1.59,3.83,2.95,7.61,4.25,11.51Z"/><path class="cls-7" d="M310.19,313.74a92.3,92.3,0,0,0-6.15-14.6,18.31,18.31,0,0,0-2.1-3.06,27.48,27.48,0,0,0-2.85-2.58c-2.07-1.65-4.26-3.2-6.46-4.77-1.1-.78-2.21-1.57-3.3-2.39a19.6,19.6,0,0,1-3.18-2.81,3.57,3.57,0,0,1-.62-1.1l-.14-.6c0-.2,0-.39-.05-.58a9.5,9.5,0,0,1,.19-2.16c.26-1.38.66-2.68,1-4a15.33,15.33,0,0,0,.43-1.91,3.52,3.52,0,0,0,0-.45,1.05,1.05,0,0,0,0-.38,2,2,0,0,0-.16-.44l-.19-.47c-.5-1.27-1-2.54-1.4-3.82s-.86-2.57-1.23-3.87a16.8,16.8,0,0,1-.77-4,17,17,0,0,0,1,3.9c.45,1.27.94,2.52,1.46,3.76s1.05,2.48,1.62,3.7l.21.45a3.06,3.06,0,0,1,.22.5,1.75,1.75,0,0,1,.11.61,3.49,3.49,0,0,1,0,.56,15,15,0,0,1-.32,2.06c-.27,1.33-.59,2.64-.74,3.93a8.46,8.46,0,0,0-.06,1.87,3.85,3.85,0,0,0,.18.81,2,2,0,0,0,.41.61,18.28,18.28,0,0,0,3.05,2.34q1.66,1.09,3.39,2.16c2.28,1.43,4.59,2.85,6.85,4.43a29.87,29.87,0,0,1,3.32,2.65,21.08,21.08,0,0,1,2.69,3.43A96.51,96.51,0,0,1,314,312.37Z"/><path class="cls-7" d="M331.21,316.48a60.08,60.08,0,0,1,5.91-7.77,20.12,20.12,0,0,1,1.88-1.79,9.22,9.22,0,0,1,2.43-1.42c1.51-.63,3-1.16,4.46-1.72a75,75,0,0,0,8.52-3.56,9.12,9.12,0,0,0,1.7-1.13c.55-.52,1.08-1.06,1.6-1.62a39.91,39.91,0,0,0,2.92-3.55,28.57,28.57,0,0,0,2.39-3.87c.18-.34.32-.69.48-1s.32-.73.5-1.09c.33-.73.7-1.44,1.06-2.15.74-1.41,1.54-2.78,2.38-4.13a27.39,27.39,0,0,1,2.82-3.91,7.87,7.87,0,0,1,2-1.43c.7-.38,1.42-.73,2.13-1.06,1.43-.67,2.87-1.3,4.31-1.94.71-.32,1.43-.64,2.11-1a3.44,3.44,0,0,0,.47-.29c.15-.11.3-.26.45-.38l.92-.75c1.23-1,2.48-1.94,3.73-2.89-1.2,1-2.39,2-3.57,3.08l-.87.79c-.15.13-.26.27-.43.41a3.1,3.1,0,0,1-.51.35c-.69.42-1.39.77-2.09,1.13-1.4.72-2.81,1.42-4.18,2.16-.69.37-1.38.74-2,1.15a6.81,6.81,0,0,0-1.74,1.34,28.42,28.42,0,0,0-2.49,3.87q-1.12,2-2.1,4.17c-.32.7-.64,1.41-.92,2.13l-.42,1.07c-.15.38-.3.77-.47,1.14a29.38,29.38,0,0,1-2.33,4.27A40.18,40.18,0,0,1,359.4,299c-.52.62-1,1.23-1.61,1.82a11.88,11.88,0,0,1-2.12,1.61,78.07,78.07,0,0,1-8.66,4.19c-1.44.62-2.89,1.24-4.25,1.89a5.78,5.78,0,0,0-1.57,1,16.74,16.74,0,0,0-1.45,1.55,54.73,54.73,0,0,0-5.1,7.51Z"/><path class="cls-7" d="M361.83,292.18a10,10,0,0,0-.38-5.28,9.81,9.81,0,0,1-.77-6.38,13.59,13.59,0,0,1,.41-1.55,15.46,15.46,0,0,1,.6-1.43,11.56,11.56,0,0,0,.76-2.71,17.17,17.17,0,0,0,.21-2.87,13.55,13.55,0,0,0-.09-1.43l0-.35,0-.45a4.61,4.61,0,0,1,.07-.84,11.1,11.1,0,0,1,2.83-5.5,9.74,9.74,0,0,1,2.45-1.89,6.42,6.42,0,0,0,1.69-2.19,22.33,22.33,0,0,1,1.61-2.56,7.92,7.92,0,0,1,1-1.13,4.74,4.74,0,0,1,.62-.46,4.8,4.8,0,0,0,.56-.45,12.33,12.33,0,0,0,2.82-5.14,12.55,12.55,0,0,1-2.6,5.38,5.71,5.71,0,0,1-.58.51,4.79,4.79,0,0,0-.55.46,7.11,7.11,0,0,0-.93,1.11,24.68,24.68,0,0,0-1.45,2.57c-.23.45-.46.9-.73,1.34a4,4,0,0,1-1.11,1.22A9.21,9.21,0,0,0,366,264a10.15,10.15,0,0,0-2.41,5.06,5,5,0,0,0,0,.66l0,.29.06.39a13.59,13.59,0,0,1,.15,1.54,17.89,17.89,0,0,1-.1,3.1,12.42,12.42,0,0,1-.74,3.06c-.21.53-.36.88-.5,1.34a9.18,9.18,0,0,0-.3,1.36A8.19,8.19,0,0,0,363,286a7.82,7.82,0,0,1,.87,3.25,16.21,16.21,0,0,1-.05,3.19Z"/><path class="cls-7" d="M327.59,272.3c-.33-3-.53-6-.57-9.05a42,42,0,0,1,.18-4.6,15.87,15.87,0,0,1,.42-2.38c.06-.21.11-.41.19-.63s.16-.43.23-.58l.44-1c1.21-2.75,2.39-5.46,3.85-8.16a11.2,11.2,0,0,1,.63-1.05,4.71,4.71,0,0,1,.48-.55l.4-.38,1.59-1.55q1.57-1.56,3.12-3.16a76,76,0,0,0,5.83-6.63,13.43,13.43,0,0,0,1.15-1.78,6.06,6.06,0,0,0,.48-2c.18-1.45.29-2.93.38-4.41.37-5.92.56-11.87.71-17.81.11,5.94.19,11.89.08,17.84,0,1.49-.07,3-.19,4.49a7,7,0,0,1-.48,2.34,14.67,14.67,0,0,1-1.17,2,78.47,78.47,0,0,1-5.63,7c-1,1.12-2,2.22-3,3.32l-1.53,1.63a5.62,5.62,0,0,0-.62.71,7.91,7.91,0,0,0-.48.88c-1.26,2.59-2.34,5.38-3.4,8.13l-.39,1a3.6,3.6,0,0,0-.16.45c-.05.14-.08.3-.12.45a14.07,14.07,0,0,0-.27,2,38.49,38.49,0,0,0,0,4.3c.13,2.9.44,5.85.85,8.72Z"/></g><path class="cls-2" d="M141.22,188c-4.34,2.87-8.57,1.76-14.84-2.63-7-4.91-15.11,5.16-16.31,7.83s-4.8,13.56,0,18.11,9.25,6.78,10.31,10.06-1.95,9.76-2,13,2.68,9.75,1,14-4.25,13.15,5,15c5,1,7.29,0,8,3s-2,2-4,3c-3.69,1.84-4.86,2.17-7,4s-2.32,11.32,0,14,5,7,8,7,5.57-2.2,7-2a9,9,0,0,1,5,3c1.33,1.65,5,2,7,1s5-3.14,5-4,1.88-2.3,3-1,1,1,5,1,12,3,15,5,6.5.5,10.5.5,8.84-3,11.92-3,14.08,0,17.08,1,10-2,14-2,12.07,4,16,4,4.37-5.16,7.17-8.08,4.3-3.42,7.3-2.42,2.07,1.62,6.28,2.56,8.22.94,11.22-.56,5-1.5,5-6.5-1-7.57-.5-11.5-.19-6.58,4-5,3.68,2.82,7.59,2.66,7.91-.16,9.91-3.16,9-13,10-15,.06-6.06-4-9.53-3.53-7-4.53-9-1.26-12.83,0-16c1.19-3,1.5-8.72,1.5-11.61s3.69-6.57,6.5-7.39,6.5-6.38,6-11-5-5-7-8-4.73-4.74-6-7-2.95-3.22-3.23-6.36,2.23-5.14,4.23-4.64,3.76,2.21,7,1,7-5,7-8,3-3.84,1-9a15.43,15.43,0,0,0-9.07-9.2c-3.43-1.3-18.43,7.7-35.43,2.2s-63.4-13.31-72.2-9.9S169.2,143,160,147.92s-10.44,21.37-11.3,26.63S141.22,188,141.22,188Z"/><path class="cls-7" d="M63.38,423.32a64.53,64.53,0,0,0,10.49-2c3.45-.89,6.89-1.84,10.3-2.88q10.26-3.07,20.47-6.34l20.49-6.38c6.83-2.12,13.72-4.1,20.61-6.08s13.82-3.87,20.81-5.56,14-3.33,21.08-4.76,14.24-2.56,21.48-3.39a131.44,131.44,0,0,1,22-.78c14.71.89,28.93,3.77,42.93,7.13s27.79,7.39,41.47,11.64c6.84,2.11,13.68,4.21,20.48,6.38s13.62,4.33,20.44,6.41,13.66,4.13,20.54,6a121.59,121.59,0,0,0,21,4,77.4,77.4,0,0,1-10.76-.35c-3.57-.4-7.14-.88-10.68-1.5-7.09-1.19-14.1-2.75-21.1-4.33s-13.92-3.4-20.86-5.15-13.83-3.64-20.75-5.43c-13.83-3.56-27.62-7.17-41.47-10.24-6.93-1.55-13.87-3-20.82-4.1a187.83,187.83,0,0,0-20.83-2.44,125.88,125.88,0,0,0-20.78.63c-7,.69-13.95,1.77-20.93,3-13.95,2.41-27.81,5.66-41.7,8.9l-41.63,10.21c-7,1.63-13.94,3.3-21,4.72q-5.28,1.08-10.6,1.92A59.48,59.48,0,0,1,63.38,423.32Z"/><path class="cls-4" d="M143.38,175.32a4.45,4.45,0,0,0-2-5,33.79,33.79,0,0,0-10-4c-1,0-3,0-3-1s-4-2-8-1-7,2.8-6,7.4-1.39,7-.2,8.3,4.2,2.3,5.2,1.3,2-2,3-1,4.11,5.77,6.05,6.88,5.95,1.12,7.95-.88,5-6,5.5-7.5A33.29,33.29,0,0,1,143.38,175.32Z"/><path class="cls-4" d="M150.38,280.32c1.58-1.58,1-6-2-8s-6-5-8-4-1,3-2,3-10,.87-12,2.93-3,10.07-1,12.07,3,5,5,4,6-5,8-3,6,5,8,5,4-3,4-5-2-3-2-5S149.38,281.32,150.38,280.32Z"/><path class="cls-4" d="M269.38,81.32c-2.24,0-9-1-11,2s-2,7.84,0,9.42,0,4.58,4,3.58,10-1,11-2,1-5.83,0-7.91S270.38,81.32,269.38,81.32Z"/><path class="cls-4" d="M172.38,73.32c-3-2-7-2-9-4s-9.66-1-8.83,2,2,7.73-.07,10.86-4.1,4.14-8.1,3.14-6,2-6,4-2,7.92,0,10.46,4,4.54,7,3.54,4-6,7-6,10,1,14,0,7.16-5,6.58-8.48-3.58-6.52-2.58-8.52S175.38,75.32,172.38,73.32Z"/><path class="cls-4" d="M316.38,154.32c1-3,2-9-1-12s-5-1-7-1-3.36-1.31-4.18-.65-.82,2.65-3.82,2.65-4,3-4,5,2.88,10,4.44,10,3.56-4.52,6.06-4.76,1.5,1.76,3.5,2.76S315.38,157.32,316.38,154.32Z"/><path class="cls-4" d="M311.38,183.32c-2-1-8-9-10-10s-5-6-5-9-3-6-5-7-6,1-11,2-4-1-4-2,1-7,2-9,10-7,11.88-9.5,2.12-7.5,4.12-9.5,4-9,3-12-6-5-9-5-13-2-21-3-11,2-14,3-2-4-2-7-5-20-6-23-7-14-9-15-8-7-11-11-7-1-9,0a89.3,89.3,0,0,1-13,5c-4,1-7,8-7,10s-5,11-6,12-6,11-7,11-12,12-14,15-12,8-16,9-13,6-15,8-4,8-6,11-1,9,1,13,9,7,12,9,11,9,11,11-2,5-3,7-5,11-8,13a18.74,18.74,0,0,0-6,7c-1,2,1,2,0,3s-6-1-8-1-5-3-7.1-5-3.9-2-5.9,0-4,5-4,8,4,8,6,10,6,5,7,9-1,4-2,8-1,11-1,13,1,4,0,6.12a6.14,6.14,0,0,0,0,5.88c1,2,7,4,10,5s14,7,17,11,2,9,2.6,13,5.4,5,9.4,5,14,2,17.21,4.25,9.79,2.75,10.79,1.75,11-3,14.83-2.09,14.17.09,16.55,0,5.62-1.91,11.45-1.27a7.06,7.06,0,0,1,3.17,1.36c1,1,4,2,7,2,1.63,0,3.86-3,6.68-7.3,1-1.58,7.5-5.95,9.32-4.7,8,5.49,13.43,5.83,16,4,7-5-1-14,2-22,2.16-5.79,6.95-3.53,9-2,4,3,8,3,11,3s9-10,11-13-4-10-7-14-2-13-2-15,3-22,4-24,9-7,10-9S313.38,184.32,311.38,183.32ZM171.1,141.87c-1.27.56-3.72-.55-5.72-.55s-1,4-3.08,4.07-5.92-3.07-5.08-3.09,2.16-3,1.16-3.48-2-4.5,0-5.5,9-1,9-1c2,0,0,2,0,3s3,1,4,2S172.38,141.32,171.1,141.87ZM287.16,195c-1.21-.31-1.78,1.32-2.78,2.32a3.31,3.31,0,0,1-2.43,1c-.42,0-4.57-5-6.57-5a26.67,26.67,0,0,0-4.45.5s.45-7.5,0-7.36a16.94,16.94,0,0,1,3.16-1.23,44,44,0,0,1,7.25-.91c1,0,2-3,2-4s2,2,1,3,0,5,1,6,3,1,3.75,2S288.38,195.32,287.16,195Z"/><path class="cls-5" d="M207.38,200.32s-10.16-2.95-11.58-2,.58,6-.42,7-3.55,4-5.78,0-3.92-10.43-5.07-11.22a39.6,39.6,0,0,0-9.5-3.38c-2.65-.4-11.65.6-12.65,2.6s2,5,6,5,6,0,8,3,8.37,6,6.18,6-6.88-.58-7.53.7-1.65,2.28-5.65,1.28-8-1-10,3-3,6-3,8-4,2-8,0-6.22,0-7.6-1.5-3.23-4.5-3.8-5-2.57-6.5-5.57-5.5-6.13,3-4.57,5.5,7.57,6.5,5.57,9.5-6,7-5,10,2.62,11,1.31,13-2.69,6.81,0,6.9,10.69-.91,12.69-.91,10.68.76,9.84,2.88,1.16,6.12,4.16,6.12,7,1,8,5-1,9.09,1,11.55,2.44,2.25,6.22,2.35,2.78-2.9,7.78-1.9a27.82,27.82,0,0,1,11.64,5c2.36,2,7.36,3,11.36,3s5.88,1.24,9.94,1.12,12.06-3,13.56-4.08-3.5-4-5.5-6-9.95-.13-11.48-3.07.48-14.93,4.48-12.93,7.77,7.26,10.38,6.13,2.62-5.13,6.62-5.13,10-1,11,1-.08,5-4,5.49-4,7.51,1,7.51,9.76,1.8,9.38,3.9-2.58,5.4,0,5.25a10.19,10.19,0,0,0,8.57-5.25c2-3.9,7-1.9,11-3.9s5-6,5-9-4-7,1-8,11-1,16-2a11.82,11.82,0,0,0,9-9c1-4,1.5-7.06,0-9.28s1.5-9.22-2.5-11.22-6,0-10,1-5,6-7,8.5-8.41.49-10.71-1-6.54-.5-10.42,0-5.87,3.51-7.87,1.51-4-9-2-10,7-5,9-5,3.41-1.81,2.7-5.41-2.7-4.59-2.7-6.59,4-3,5.52-7-.52-17-2.52-20-6.4-11.44-10.2-12.22-5.26-.31-4,3,1.55,8.19-1.11,7.73-9,.46-9.83,4.5,1.17,11,1.17,13,2.8,8,.9,9.49a33.48,33.48,0,0,1-6.62,4.51,52.08,52.08,0,0,0-7.11,3.59c-2.17,1.41.5,6.43-1.84,6.92s-4.07-1-5.7-2.78-6.51-4.73-4.07-7.73,4.44-7,3.44-9S209.88,200.82,207.38,200.32Z"/><path class="cls-5" d="M226.63,178.82c-4-.89-5.52-1.5-7.89,0s-7.36,1.5-8.36,2.5,0,8,2,9,3.57,3.64,7.79,4.33,6.23.69,6.23-2.31-2.85-5.34-2.43-6.17,4.43-2.83,4.43-3.83S228.88,179.32,226.63,178.82Z"/><path class="cls-5" d="M287,203.82a21.1,21.1,0,0,0-8.64-1.5c-2,0-3-3-5,0s-2,6-4,7-7.14-1-6.57,4.5,4.57,8.5,7.57,8.5,4,5,6,5,6-1,6-4-2-4.81,1-5.91,5.94-.42,6.48-3.26S290.67,205.32,287,203.82Z"/><path class="cls-5" d="M213.38,136.32c0-4-1-9-6-9s-4,2-7,2-4-2-8,0-6,3-6,6,1,9-1,10-10.82,1.44-11.91,4.72-3.09,5.28-2.09,7.28,5,4,7,3,2,2,5,4,5,5,8,4,2.15-8,3.57-10,.43-3,7.43-3,10.26.23,12.13,1.62,3.87,4.38,6.87,4.38,8-2,8-5,2-5,1-6,1.53-1.8-4.74-2.4-3.26-2.6-7.26-4.6S213.38,139.32,213.38,136.32Z"/><g class="cls-10"><path class="cls-11" d="M171.38,76.32c-2.24,0-5-2-7-2a5.2,5.2,0,0,0-4,2c-1,1,0,4,1,6s-5,1-5,3,5,4.77,7.5,3.39,4.5-.39,4.5,1.61,4,3,6,2,.3-6.61.65-8.81,2.35-1.19,4.35-4.19,2-5-1-5S173.38,76.32,171.38,76.32Z"/><path class="cls-11" d="M200.88,112.31c-4.11-2.71-5.5-4-8.5-3s-1.78,0-4.89,3,2.89,3,2.89,6-3,3,0,4,9,3,9-1,2.63-3.87,3.31-4.94S202.38,113.3,200.88,112.31Z"/><path class="cls-11" d="M263.38,124.32c-5.39,0-7-1-7,1s-3.33,1.05-4.17,1-2.08-2.23-4-2.63-5,2.65-6.43,2.63.56,1.75,3.06,2.86,1.58,4.68,0,6.9-4.63,1.64-3.59,4.92,1.33,9.62,4.69,9.45,4.13-.16,4.74-1.66-.38-3.5-1.38-4.5,1.08-2.87,3.54-3.94,1.46,1.94,4.46.94,4-4,6-5.5,2-1.53,0-3.52,3-4.15,2.5-5.06S264.38,124.32,263.38,124.32Z"/><path class="cls-11" d="M208.89,168.52c-2.78-.22-7.32,1.7-10.42,2.75s.78,3.27.84,4.66,1.34,3.39-3.8,2.89-5.83-2-11-4.27-8,0-11.06,1.38-1.66,2-1.38,4.19,1.29,2.2,4.29,3.2,2.78,2.27,4.39,4.63,13.45,6.37,15,3.37-.42-4.73,4.08-3.37,2.07,3.51,4.78,4.44,3.64-.8,2.68-4.44-4-4.63-2-6.63,2.88-4.53,5.94-6.77S211.4,168.72,208.89,168.52Z"/><path class="cls-11" d="M268.34,195c-6,4.32-9-2-11.46-2.36s-4.23,1.73-4.87,5.7,1.37,8.07,4.87,8.53,6.27-.2,5.88,2.62,3.62,2.83,6.62,1.83,2.28-6,3.14-7.5,5.06-4.45,3-5.48S268.6,194.82,268.34,195Z"/><path class="cls-11" d="M239.38,98.32c-3.17-3.16-9-2-10-7s-1-5.43-5-6.22-8.39,1-7.7,6.61.16,2.73-2.58,2.17-5.79-3.29-6.76-.93-7,5.77-4,10.07,11,6.3,12,7.3.31,2.05-1.85,6,2.85,3,4.85,4,3.77,3.72,4.38.86.15-5.81,2.88-4.83,1.77,5.17,6.75,3.07,7.79-5.37,3.39-8.24,2.6-6.46,3.6-8.16S241.38,100.32,239.38,98.32Z"/></g><path class="cls-7" d="M221.39,386.75c-.31-5.14-.47-10.17-.51-15.29,0-2.55,0-5.11.1-7.7s.25-5.18.59-7.88c.09-.68.16-1.35.31-2.06l.19-1.06.15-.86c.07-.51.21-.94.24-1.5l.14-1.62a63.07,63.07,0,0,0-.13-7,127.36,127.36,0,0,0-2-14.4c-.46-2.39-1-4.78-1.59-7.08-.14-.58-.31-1.11-.47-1.67l-.56-1.75a20.7,20.7,0,0,1-.55-2.15c-.17-.69-.25-1.31-.38-2-.87-5.15-1.35-10.15-1.78-15.21s-.67-10.09-.73-15.19c0-2.55,0-5.11.2-7.74.09-1.35.25-2.58.41-3.81l.46-3.73,1.83-14.9.45-3.7,0-.77c0-.27,0-.58,0-.87,0-.58,0-1.2-.06-1.81-.11-2.46-.25-5-.29-7.55a76.21,76.21,0,0,1,.27-7.69c.17-1.29.27-2.57.53-3.85.13-.64.22-1.28.37-1.91l.48-1.9a17.63,17.63,0,0,1,.59-1.87c.22-.62.4-1.25.67-1.85a28.37,28.37,0,0,1,1.75-3.54c.35-.56.65-1.15,1-1.68l1.21-1.58a18.21,18.21,0,0,1,1.23-1.48l1.25-1.42c3.36-3.74,6.83-7.36,10.27-11,1.71-1.82,3.42-3.64,5-5.51a28,28,0,0,0,4.23-5.92,12.94,12.94,0,0,0,.79-3.48c.16-1.23.3-2.47.42-3.71.25-2.49.47-5,.76-7.47.15-1.25.3-2.49.52-3.73a19.73,19.73,0,0,1,.89-3.68,6.44,6.44,0,0,1,.95-1.65c.37-.5.76-1,1.15-1.49a34.92,34.92,0,0,1,2.51-2.79,34.56,34.56,0,0,0-2.39,2.89q-.56.75-1.08,1.53a5.82,5.82,0,0,0-.84,1.62,19.4,19.4,0,0,0-.73,3.64c-.16,1.23-.26,2.47-.36,3.72-.19,2.49-.3,5-.45,7.48-.07,1.25-.15,2.5-.26,3.76a14.05,14.05,0,0,1-.73,3.84,29.42,29.42,0,0,1-4.17,6.44c-1.58,2-3.22,3.87-4.87,5.77-3.29,3.77-6.59,7.51-9.75,11.35l-1.18,1.45a17.5,17.5,0,0,0-1.11,1.45l-1,1.45c-.33.49-.57,1-.86,1.55a24.74,24.74,0,0,0-1.44,3.24c-.22.55-.36,1.13-.54,1.7a14.19,14.19,0,0,0-.46,1.73l-.37,1.75c-.12.59-.17,1.19-.26,1.78-.2,1.19-.24,2.41-.35,3.61a71.16,71.16,0,0,0,.05,7.3c.14,2.45.38,4.9.6,7.42.05.64.11,1.26.14,1.94,0,.34,0,.65,0,1l0,1.09-.29,3.77-1.21,15-.31,3.74c-.1,1.25-.21,2.51-.24,3.66-.07,2.36,0,4.81.13,7.26.25,4.9.72,9.83,1.32,14.74s1.31,9.83,2.31,14.51c.13.56.24,1.18.4,1.7a12.92,12.92,0,0,0,.43,1.47c.08.27.44,1.16.66,1.79s.45,1.29.63,1.91c.77,2.51,1.42,5,2,7.49A136,136,0,0,1,230.56,341a71.67,71.67,0,0,1,.47,8,33.26,33.26,0,0,1-.34,4.34l-.25,1.78c-.08.52-.12,1.1-.17,1.67-.2,2.26-.25,4.67-.23,7.08s.1,4.86.21,7.3c.24,4.89.61,9.85,1.11,14.68Z"/><path class="cls-7" d="M221.52,329.84c1.55-4.75,3.18-9.37,5.07-14a53.57,53.57,0,0,1,3.39-7,10.14,10.14,0,0,1,1.55-2l.29-.29,0,0s.05-.05.1-.09a3.13,3.13,0,0,0,.3-.42,14.84,14.84,0,0,0,1.28-2.81c.78-2.13,1.41-4.46,2-6.8l1-3.58c.17-.6.35-1.21.56-1.84a15.13,15.13,0,0,1,.78-2,5.4,5.4,0,0,1,.35-.64l.25-.38c.13-.18.26-.42.39-.63.25-.46.49-1,.71-1.46a26,26,0,0,0,1.13-3.18,28.14,28.14,0,0,0,1-6.77,27.63,27.63,0,0,0-.68-6.87c-.5-2.31-1.18-4.63-1.87-7s-1.4-4.71-2-7.15a24.27,24.27,0,0,1-.68-7.58,14.15,14.15,0,0,1,.33-1.93c.17-.65.37-1.23.56-1.81l1.2-3.48c.8-2.3,1.6-4.6,2.33-6.93a61.24,61.24,0,0,0,1.81-7,25.93,25.93,0,0,0,.44-3.62,11.28,11.28,0,0,0-.34-3.61,11.62,11.62,0,0,1,.57,3.62,26.63,26.63,0,0,1-.22,3.68,63,63,0,0,1-1.4,7.22c-.58,2.39-1.24,4.75-1.91,7.1L239,244a13.44,13.44,0,0,0-.6,3.41,22.71,22.71,0,0,0,1.06,6.91c.66,2.29,1.5,4.56,2.33,6.85s1.68,4.63,2.36,7.06a31.19,31.19,0,0,1,1.23,7.61,32.05,32.05,0,0,1-.69,7.75,30.87,30.87,0,0,1-1.09,3.8c-.23.62-.48,1.25-.78,1.88s-.85,1.5-.81,1.54a10.3,10.3,0,0,0-.44,1.43c-.14.54-.28,1.11-.4,1.69l-.74,3.55c-.49,2.41-1,4.84-1.72,7.35a21,21,0,0,1-1.54,3.94,9.22,9.22,0,0,1-.71,1.11,6.06,6.06,0,0,1-.5.59l-.3.31s0,0,0,0a7.59,7.59,0,0,0-.59.94,49.54,49.54,0,0,0-2.6,6.31c-1.55,4.48-2.93,9.16-4.17,13.77Z"/><path class="cls-7" d="M240.75,268.12a117.54,117.54,0,0,1,8.84-18,25.13,25.13,0,0,1,3.22-4.14,37.22,37.22,0,0,1,4-3.23c2.73-1.93,5.54-3.68,8.32-5.44,1.39-.88,2.78-1.76,4.13-2.67a21.86,21.86,0,0,0,3.73-2.9,2.78,2.78,0,0,0,.53-.8l.14-.49a4.68,4.68,0,0,0,.07-.54,10.11,10.11,0,0,0-.08-2.32c-.2-1.58-.59-3.17-.93-4.8a19.76,19.76,0,0,1-.4-2.5,3.72,3.72,0,0,1,0-.67,2.15,2.15,0,0,1,.13-.72,3.15,3.15,0,0,1,.26-.6l.26-.55c.69-1.49,1.33-3,2-4.53s1.22-3.05,1.75-4.61a20.69,20.69,0,0,0,1.22-4.76,21.22,21.22,0,0,1-1,4.84q-.69,2.37-1.52,4.71c-.55,1.56-1.11,3.11-1.73,4.64l-.24.58a2.83,2.83,0,0,0-.2.54,1.46,1.46,0,0,0-.06.49,3.6,3.6,0,0,0,0,.56,18.62,18.62,0,0,0,.5,2.35c.42,1.58.9,3.17,1.2,4.85a11.61,11.61,0,0,1,.21,2.6c0,.23,0,.45-.06.69l-.16.7a4.1,4.1,0,0,1-.73,1.3,24.52,24.52,0,0,1-3.87,3.37c-1.34,1-2.69,2-4,2.9-2.69,1.9-5.38,3.78-7.93,5.78a37.42,37.42,0,0,0-3.54,3.15,23.08,23.08,0,0,0-2.62,3.79,114.6,114.6,0,0,0-7.64,17.83Z"/><path class="cls-7" d="M215.46,275.29a69.56,69.56,0,0,0-6.31-9.2,23.78,23.78,0,0,0-1.82-1.91,7.55,7.55,0,0,0-2-1.3c-1.67-.79-3.45-1.54-5.21-2.3a92.07,92.07,0,0,1-10.54-5,13.25,13.25,0,0,1-2.55-1.91c-.68-.71-1.34-1.45-2-2.2a51.85,51.85,0,0,1-3.51-4.71,37.09,37.09,0,0,1-2.85-5.17c-.21-.45-.38-.91-.57-1.37s-.33-.88-.52-1.32c-.35-.87-.74-1.74-1.14-2.6-.8-1.72-1.67-3.42-2.6-5.08a34,34,0,0,0-3.07-4.73,8.76,8.76,0,0,0-2.15-1.65c-.81-.49-1.65-1-2.49-1.4-1.69-.89-3.41-1.73-5.13-2.6-.85-.44-1.71-.87-2.55-1.36a4.06,4.06,0,0,1-.62-.43c-.2-.17-.34-.33-.52-.5l-1.07-.95c-1.44-1.27-2.91-2.51-4.37-3.74,1.52,1.17,3,2.34,4.53,3.54l1.11.92c.19.15.37.34.55.47a4.08,4.08,0,0,0,.58.36c.83.45,1.71.84,2.58,1.24,1.75.79,3.5,1.56,5.24,2.38.87.42,1.74.84,2.59,1.31a9.52,9.52,0,0,1,2.46,1.74,35.27,35.27,0,0,1,3.41,4.77c1,1.64,2,3.33,2.87,5,.44.86.88,1.72,1.28,2.61.21.44.4.9.6,1.34s.37.84.58,1.26a36.16,36.16,0,0,0,2.92,4.78,49.63,49.63,0,0,0,3.55,4.36c.64.69,1.29,1.36,2,2a11.53,11.53,0,0,0,2.12,1.43,91.8,91.8,0,0,0,10.42,4.42c1.79.69,3.59,1.35,5.42,2.12a11.36,11.36,0,0,1,2.87,1.69,25.5,25.5,0,0,1,2.24,2.15,73.45,73.45,0,0,1,7.13,9.46Z"/><path class="cls-7" d="M179.7,243.65a19.75,19.75,0,0,1-.08-3.84,9.37,9.37,0,0,1,1-3.89,10.23,10.23,0,0,0,1-6.54,11.88,11.88,0,0,0-.38-1.67c-.18-.57-.37-1-.62-1.65a14.73,14.73,0,0,1-.91-3.7,22.41,22.41,0,0,1-.14-3.75c0-.62.09-1.25.18-1.87l.08-.48,0-.37a4.6,4.6,0,0,0,0-.82,12.5,12.5,0,0,0-3-6.23,11.06,11.06,0,0,0-2.71-2.23,4.48,4.48,0,0,1-1.33-1.46c-.33-.53-.62-1.07-.9-1.61a27.54,27.54,0,0,0-1.78-3.15A10,10,0,0,0,169,199a7.5,7.5,0,0,0-.68-.56,6.91,6.91,0,0,1-.71-.61,10.68,10.68,0,0,1-2-3.09,20.44,20.44,0,0,1-1.2-3.45,21.81,21.81,0,0,0,1.34,3.38,10.66,10.66,0,0,0,2.07,2.92,5,5,0,0,0,.69.55,7,7,0,0,1,.75.57,9.61,9.61,0,0,1,1.26,1.37,29.41,29.41,0,0,1,1.94,3.13,7.88,7.88,0,0,0,2.08,2.71,11.82,11.82,0,0,1,3,2.31,13.51,13.51,0,0,1,3.41,6.66,8.1,8.1,0,0,1,.08,1l-.05.54-.06.43a17.14,17.14,0,0,0-.11,1.76,20.81,20.81,0,0,0,.24,3.53,14,14,0,0,0,.93,3.34c.21.48.52,1.15.72,1.73a13.87,13.87,0,0,1,.48,1.87,11.78,11.78,0,0,1-.93,7.67,7.59,7.59,0,0,0-.69,3.14,17.81,17.81,0,0,0,.18,3.43Z"/><path class="cls-7" d="M220.39,218.62c.49-3.52.85-7.12,1-10.68a49,49,0,0,0,0-5.29,17.92,17.92,0,0,0-.35-2.5c0-.19-.09-.39-.15-.56s-.12-.35-.21-.58l-.48-1.26c-1.32-3.35-2.65-6.75-4.2-9.93a12.13,12.13,0,0,0-.6-1.09,7.32,7.32,0,0,0-.79-.89l-1.88-2q-1.86-2-3.68-4a94.9,94.9,0,0,1-6.9-8.51,18.64,18.64,0,0,1-1.42-2.43,5,5,0,0,1-.42-1.43,13.78,13.78,0,0,1-.16-1.39c-.15-1.83-.22-3.65-.26-5.47-.16-7.26-.09-14.52,0-21.77.15,7.25.34,14.51.77,21.74.11,1.81.23,3.62.45,5.39a10.4,10.4,0,0,0,.2,1.3,3.83,3.83,0,0,0,.38,1.17,16.34,16.34,0,0,0,1.41,2.2,92.31,92.31,0,0,0,7.09,8.13q1.88,2,3.8,3.88l1.93,1.9.49.47a4,4,0,0,1,.55.64c.31.45.53.85.76,1.26,1.76,3.29,3.19,6.61,4.65,10l.53,1.25c.09.2.18.45.28.71s.15.49.22.74a19.58,19.58,0,0,1,.49,2.87,49.81,49.81,0,0,1,.2,5.58c-.05,3.7-.31,7.33-.72,11Z"/></g></svg>