<svg xmlns="http://www.w3.org/2000/svg" viewBox="0 0 458.98 458.98"><defs><style>.cls-1{opacity:0.33;}.cls-2{fill:#2e4242;}.cls-3{opacity:0.5;}.cls-4,.cls-5{fill:#498467;}.cls-4{opacity:0.52;}.cls-5{opacity:0.6;}.cls-11,.cls-6,.cls-9{fill:#d9e0d5;}.cls-6{opacity:0.42;}.cls-7{fill:#fff;}.cls-8{opacity:0.76;}.cls-9{opacity:0.57;}.cls-10{opacity:0.53;}</style></defs><g id="Blog_Avatar" data-name="Blog Avatar"><rect class="cls-2" width="458.98" height="458.98"/><g class="cls-3"><path class="cls-4" d="M134.91,329.78a4.94,4.94,0,0,1,2.22-5.55c3.33-2.22,10-4.44,11.1-4.44s3.33,0,3.33-1.11,4.43-2.22,8.87-1.11,7.77,3.11,6.66,8.21,1.54,7.78.21,9.22-4.65,2.54-5.76,1.43-2.22-2.22-3.33-1.11-4.57,6.41-6.72,7.64-6.59,1.24-8.81-1-5.55-6.66-6.1-8.32A37.92,37.92,0,0,0,134.91,329.78Z"/><path class="cls-4" d="M127.15,446.27c-1.76-1.76-1.06-6.66,2.24-8.88s6.63-5.54,8.85-4.44,1.11,3.33,2.22,3.33,11.06,1,13.3,3.26,3.34,11.17,1.12,13.39-3.32,5.54-5.54,4.43-6.66-5.54-8.88-3.33-6.66,5.55-8.88,5.55-4.43-3.33-4.43-5.55,2.22-3.32,2.22-5.54S128.26,447.38,127.15,446.27Z"/><path class="cls-4" d="M-4.88,225.49c2.48,0,10-1.11,12.21,2.22s2.22,8.7,0,10.45,0,5.08-4.44,4-11.1-1.11-12.2-2.22-1.11-6.46,0-8.78S-6,225.49-4.88,225.49Z"/><path class="cls-4" d="M102.74,216.61c3.33-2.22,7.77-2.22,10-4.44s10.72-1.1,9.8,2.22-2.27,8.58.07,12.06,4.56,4.59,9,3.48,6.66,2.21,6.66,4.43,2.22,8.79,0,11.61-4.44,5-7.76,3.93-4.44-6.66-7.77-6.66-11.1,1.11-15.53,0-8-5.5-7.31-9.41,4-7.23,2.87-9.45S99.41,218.83,102.74,216.61Z"/><path class="cls-4" d="M-54.8,346.42c1.11,2.22,10,7.76,11.09,10s4.44,24.41,4.44,26.63,1.11,12.2-2.22,16.64-10,12.21-7.76,15.53,8.87,14.43,12.2,14.43,7.77,0,12.2-3.33c2.27-1.7,7.58-4.2,10,2.22,3.33,8.87-5.55,18.86,2.22,24.41,2.84,2,8.87,1.65,17.75-4.44,2-1.38,9.19,3.46,10.33,5.21,3.13,4.81,5.61,8.1,7.42,8.1,3.33,0,6.66-1.11,7.77-2.22a7.78,7.78,0,0,1,3.51-1.51c6.47-.71,10,1.31,12.7,1.41s14.1,1,18.36,0,15.35,1.21,16.46,2.32,8.4.56,12-1.94,14.67-4.72,19.1-4.72,9.75-1,10.42-5.49-.43-10,2.9-14.48,15.53-11.09,18.86-12.2,10-3.33,11.09-5.55a6.8,6.8,0,0,0,0-6.52c-1.11-2.35,0-4.57,0-6.79s0-10-1.11-14.42-3.32-4.44-2.22-8.88,5.55-7.77,7.77-10,6.66-7.77,6.66-11.1-2.22-6.66-4.44-8.87-4.23-2.22-6.55,0-5.65,5.54-7.87,5.54-7.77,2.22-8.88,1.11,1.11-1.11,0-3.33a20.86,20.86,0,0,0-6.66-7.76c-3.32-2.22-7.76-12.21-8.87-14.42s-3.33-5.55-3.33-7.77,8.88-10,12.2-12.2,11.1-5.55,13.32-10,3.33-11.09,1.11-14.42-4.44-10-6.66-12.21-12.2-7.76-16.64-8.87-15.53-6.66-17.75-10-14.43-16.64-15.53-16.64-6.66-11.09-7.77-12.2-6.66-11.1-6.66-13.32-3.33-10-7.76-11.09a99.12,99.12,0,0,1-14.43-5.55c-2.22-1.11-6.62-4.44-10,0S34,208.84,31.77,210s-8.91,13.32-10,16.65-6.66,22.19-6.66,25.52,1.11,8.87-2.22,7.76-6.65-4.44-15.53-3.33-20,3.33-23.3,3.33-8.87,2.22-10,5.55,1.11,11.09,3.33,13.31,2.47,7.77,4.56,10.54S-16,297.6-14.86,299.82s2.22,8.88,2.22,10,1.11,3.32-4.44,2.22-10-3.33-12.2-2.22-5.55,4.43-5.55,7.76-3.33,8.88-5.55,10-8.87,10-11.09,11.09S-55.91,344.2-54.8,346.42Zm158.65-58.8c1.11-1.11,4.44-1.11,4.44-2.22s-2.22-3.33,0-3.33c0,0,7.76,0,10,1.11s1.11,5.55,0,6.1.34,3.83,1.28,3.86-3.33,3.52-5.63,3.43-1.2-4.51-3.41-4.51-5,1.22-6.36.61S102.74,288.73,103.85,287.62ZM-26.8,347.53c.84-1.11,3.06-1.11,4.17-2.22s2.22-5.55,1.11-6.66,1.11-4.44,1.11-3.33,1.11,4.44,2.22,4.44a47.24,47.24,0,0,1,8,1,18.27,18.27,0,0,1,3.5,1.35c-.45-.15.05,8.17.05,8.17a29.67,29.67,0,0,0-4.93-.55c-2.22,0-6.83,5.6-7.3,5.57a3.72,3.72,0,0,1-2.69-1.14c-1.11-1.11-1.74-2.92-3.09-2.57S-27.64,348.64-26.8,347.53Z"/><path class="cls-5" d="M63.91,357.51s11.27-3.27,12.85-2.19-.65,6.63.46,7.74,3.94,4.44,6.41,0,4.35-11.57,5.63-12.44a43.51,43.51,0,0,1,10.53-3.75c2.95-.45,12.93.66,14,2.88s-2.22,5.54-6.65,5.54-6.66,0-8.88,3.33-9.29,6.71-6.86,6.68,7.63-.64,8.35.78,1.84,2.53,6.28,1.42,8.87-1.11,11.09,3.33,3.33,6.65,3.33,8.87,4.49,2.22,8.9,0,6.91,0,8.44-1.66,3.58-5,4.21-5.55,2.86-7.21,6.19-6.1,6.79,3.33,5.06,6.1-8.39,7.21-6.17,10.54,6.65,7.77,5.54,11.09-2.91,12.24-1.45,14.44,3,7.56,0,7.65-11.86-1-14.08-1-11.85.85-10.92,3.2-1.28,6.79-4.61,6.79-7.77,1.11-8.88,5.55,1.11,10.09-1.11,12.81-2.7,2.5-6.9,2.61-3.08-3.22-8.63-2.11a30.88,30.88,0,0,0-12.92,5.6c-2.61,2.17-8.16,3.28-12.59,3.28s-6.54,1.37-11,1.24-13.37-3.36-15-4.52,3.89-4.49,6.11-6.71,11-.15,12.72-3.4-.52-16.57-5-14.35-8.63,8.05-11.52,6.8-2.9-5.69-7.34-5.69-11.09-1.11-12.2,1.11.07,5.52,4.47,6.09,4.4,8.33-1.14,8.33-10.84,2-10.41,4.33,2.85,6,0,5.82a11.27,11.27,0,0,1-9.5-5.82c-2.25-4.33-7.8-2.11-12.24-4.33s-5.55-6.66-5.55-10,4.44-7.77-1.11-8.88-12.2-1.11-17.75-2.22a13.13,13.13,0,0,1-10-10c-1.11-4.44-1.67-7.83,0-10.3s-1.67-10.23,2.77-12.45,6.66,0,11.1,1.11,5.54,6.67,7.76,9.44,9.33.54,11.88-1.12,7.25-.56,11.56,0,6.52,3.89,8.74,1.67,4.43-10,2.22-11.1-7.77-5.54-10-5.54-3.79-2-3-6,3-5.1,3-7.32S5.61,365.83,4,361.4s.58-18.86,2.8-22.19,7.1-12.69,11.32-13.56,5.83-.34,4.47,3.28-1.73,9.07,1.23,8.57,10,.52,10.9,5S33.4,354.74,33.4,357s-3.11,8.85-1,10.52,4.8,3.9,7.34,5a56.7,56.7,0,0,1,7.89,4c2.41,1.56-.55,7.12,2,7.67S54.18,383,56,381.07s7.23-5.25,4.52-8.58-4.92-7.77-3.81-10S61.14,358.07,63.91,357.51Z"/><path class="cls-5" d="M42.55,333.66c4.44-1,6.12-1.66,8.75,0s8.17,1.66,9.28,2.77,0,8.84-2.2,10-4,4-8.65,4.8-6.9.77-6.9-2.56,3.16-5.93,2.69-6.85-4.91-3.14-4.91-4.25S40.05,334.21,42.55,333.66Z"/><path class="cls-5" d="M-24.45,361.4a23.35,23.35,0,0,1,9.59-1.67c2.22,0,3.35-3.33,5.56,0s2.2,6.66,4.42,7.77,7.92-1.11,7.29,5-5.07,9.43-8.4,9.43-4.43,5.55-6.65,5.55-6.66-1.11-6.66-4.44,2.25-5.34-1.09-6.55-6.59-.48-7.19-3.62S-28.5,363.06-24.45,361.4Z"/><path class="cls-5" d="M57.25,286.51c0-4.44,1.11-10,6.66-10s4.44,2.22,7.76,2.22,4.44-2.22,8.88,0,6.66,3.33,6.66,6.66-1.11,10,1.11,11.09,12,1.6,13.21,5.24,3.43,5.86,2.32,8.08-5.55,4.43-7.77,3.32-2.22,2.22-5.54,4.44S85,323.12,81.66,322s-2.39-8.88-4-11.09-.47-3.33-8.23-3.33-11.39.26-13.47,1.79-4.29,4.86-7.61,4.86S39.5,312,39.5,308.7s-2.22-5.55-1.11-6.66-1.7-2,5.25-2.66,3.63-2.89,8.06-5.11S57.25,289.84,57.25,286.51Z"/><path class="cls-6" d="M103.85,219.94c2.48,0,5.55-2.22,7.76-2.22s3.33,1.11,4.44,2.22,0,4.44-1.11,6.66,5.55,1.11,5.55,3.33-5.55,5.29-8.32,3.75-5-.43-5,1.79-4.44,3.33-6.66,2.22-.34-7.33-.73-9.77-2.6-1.32-4.82-4.65-2.22-5.55,1.11-5.55S101.63,219.94,103.85,219.94Z"/><path class="cls-6" d="M71.12,259.87c4.56-3,6.1-4.43,9.43-3.32s2,0,5.42,3.32-3.2,3.34-3.2,6.67,3.33,3.33,0,4.44-10,3.32-10-1.11-2.92-4.3-3.68-5.48S69.45,261,71.12,259.87Z"/><path class="cls-6" d="M1.78,273.19c6,0,7.77-1.1,7.77,1.11s3.68,1.17,4.61,1.14,2.31-2.47,4.4-2.91,5.53,2.94,7.13,2.91-.61,1.95-3.39,3.18-1.76,5.2,0,7.65,5.13,1.82,4,5.47S24.76,302.4,21,302.22s-4.58-.18-5.26-1.84.43-3.89,1.54-5-1.2-3.18-3.93-4.36-1.62,2.14-4.94,1S4,287.63,1.78,286s-2.22-1.7,0-3.91-3.33-4.6-2.77-5.62S.67,273.19,1.78,273.19Z"/><path class="cls-6" d="M62.23,322.23c3.08-.24,8.12,1.89,11.56,3.06s-.87,3.62-.94,5.16-1.48,3.76,4.22,3.21,6.47-2.25,12.19-4.73,8.84,0,12.27,1.52,1.83,2.21,1.52,4.65-1.42,2.44-4.75,3.55-3.09,2.52-4.87,5.14-14.92,7.07-16.67,3.74.46-5.25-4.53-3.74-2.31,3.9-5.31,4.93-4-.89-3-4.93,4.4-5.14,2.18-7.36-3.21-5-6.6-7.5S59.44,322.45,62.23,322.23Z"/><path class="cls-6" d="M-3.73,351.61C2.89,356.4,6.22,349.35,9,349s4.69,1.92,5.39,6.33-1.51,8.95-5.39,9.46-7-.22-6.53,2.91-4,3.14-7.34,2-2.53-6.66-3.48-8.32-5.62-4.94-3.29-6.08S-4,351.41-3.73,351.61Z"/><path class="cls-6" d="M28.41,244.35c3.5-3.51,10-2.22,11.09-7.77s1.08-6,5.53-6.89,9.31,1.11,8.55,7.33-.18,3,2.86,2.4,6.42-3.65,7.5-1,7.73,6.39,4.41,11.16-12.21,7-13.32,8.1-.35,2.28,2,6.69-3.16,3.3-5.38,4.41-4.19,4.12-4.86.95-.16-6.44-3.2-5.36-2,5.74-7.49,3.41-8.63-6-3.75-9.14-2.88-7.17-4-9.06S26.19,246.57,28.41,244.35Z"/><path class="cls-7" d="M38.55,560.36c-.35-1.56-.58-2.89-.81-4.34s-.43-2.83-.59-4.25c-.34-2.85-.55-5.71-.61-8.61a66.39,66.39,0,0,1,.36-8.77c.17-1.48.41-3,.71-4.46.16-.75.34-1.49.55-2.24.09-.37.21-.75.32-1.12l.32-1a52,52,0,0,0,1.65-7.35c.42-2.59.77-5.25,1.08-7.92.62-5.35,1.08-10.76,1.75-16.29.17-1.38.36-2.77.6-4.21a25.23,25.23,0,0,1,1.15-4.7,21.74,21.74,0,0,0,1-3.39c.28-1.26.54-2.55.78-3.86.94-5.25,1.66-10.61,2.25-16s1.05-10.74,1.22-16.08a69,69,0,0,0-.12-7.89l-.64-8.13-1.41-16.3-.16-2.08a21.52,21.52,0,0,1,0-2.28c.08-1.43.21-2.79.33-4.15.25-2.71.47-5.38.56-8.06a52.19,52.19,0,0,0-1.48-15.71,29.15,29.15,0,0,0-3-7.17c-.31-.57-.7-1.09-1-1.64s-.76-1-1.19-1.56l-2.57-3.14c-3.48-4.17-7.1-8.23-10.69-12.35-1.8-2.06-3.58-4.13-5.28-6.3-.85-1.08-1.68-2.19-2.45-3.35a16.2,16.2,0,0,1-1.95-3.77,10.41,10.41,0,0,1-.43-2.11c-.08-.69-.15-1.37-.21-2.06-.12-1.36-.2-2.73-.28-4.09-.16-2.72-.29-5.44-.51-8.16-.11-1.35-.23-2.71-.41-4.05a20.35,20.35,0,0,0-.83-4,6.71,6.71,0,0,0-1-1.75c-.37-.56-.77-1.12-1.18-1.66a35.61,35.61,0,0,0-2.61-3.14,37.46,37.46,0,0,1,2.73,3c.43.54.85,1.08,1.25,1.63a7.2,7.2,0,0,1,1.07,1.77,21.48,21.48,0,0,1,1,4c.23,1.35.4,2.71.56,4.06.32,2.72.56,5.44.82,8.15.13,1.35.26,2.71.43,4.05.08.67.18,1.34.28,2a10.35,10.35,0,0,0,.45,1.88,25.83,25.83,0,0,0,4.43,6.55c1.74,2.06,3.59,4.05,5.45,6,3.73,4,7.52,7.9,11.18,12l2.73,3.08c.45.51.9,1.1,1.35,1.65s.86,1.15,1.22,1.76a32.41,32.41,0,0,1,3.58,7.75A55.62,55.62,0,0,1,52.52,397c0,2.79-.12,5.56-.27,8.28-.07,1.36-.14,2.72-.16,4a14.72,14.72,0,0,0,0,1.8l.22,2,2,16.22.94,8.15a72.81,72.81,0,0,1,.46,8.44c0,5.57-.24,11.07-.63,16.57s-.92,11-1.7,16.49c-.2,1.38-.42,2.77-.69,4.18a29.13,29.13,0,0,1-1.14,4.5,21.79,21.79,0,0,0-.62,3.27c-.16,1.26-.29,2.57-.4,3.9-.44,5.32-.7,10.79-1.13,16.29-.22,2.76-.47,5.52-.82,8.33A59.77,59.77,0,0,1,47,528l-.25.94c-.08.28-.15.56-.21.85-.14.57-.24,1.16-.35,1.75-.19,1.19-.33,2.4-.42,3.64a57.83,57.83,0,0,0,0,7.56c.17,2.55.47,5.12.88,7.67.2,1.28.43,2.56.69,3.82s.56,2.58.85,3.67Z"/><path class="cls-7" d="M42.4,507.43c-1.47-5.31-3-10.67-4.78-15.9-.87-2.62-1.78-5.22-2.79-7.69a30.21,30.21,0,0,0-1.61-3.4l-.2-.33-.17-.24s0,0-.05-.07c-.18-.19-.44-.44-.61-.65a10.65,10.65,0,0,1-1.47-2.42,30.83,30.83,0,0,1-1.52-4.37c-.39-1.42-.72-2.83-1-4.22-.61-2.77-1.12-5.55-1.74-8.15-.16-.65-.33-1.28-.51-1.82-.09-.25-.2-.53-.24-.62l-.24-.41c-.1-.18-.22-.37-.31-.55a24.22,24.22,0,0,1-1.69-4.28A35,35,0,0,1,22,443.54a34.15,34.15,0,0,1,.84-8.79,78.78,78.78,0,0,1,2.53-8.19c.94-2.65,1.92-5.26,2.74-7.89a29.84,29.84,0,0,0,1.54-7.94,13.35,13.35,0,0,0-.45-3.92c-.35-1.34-.73-2.68-1.11-4-.77-2.69-1.54-5.39-2.23-8.11a75.21,75.21,0,0,1-1.67-8.27,31.24,31.24,0,0,1-.29-4.21,12.89,12.89,0,0,1,.62-4.15,12.87,12.87,0,0,0-.39,4.14,28.74,28.74,0,0,0,.52,4.14,75.06,75.06,0,0,0,2.1,8.09c.83,2.67,1.75,5.31,2.67,7.95.46,1.33.91,2.65,1.35,4a15.33,15.33,0,0,1,.74,4.36,32.18,32.18,0,0,1-1.16,8.58c-.7,2.76-1.55,5.45-2.33,8.12a74.4,74.4,0,0,0-2,8,30.41,30.41,0,0,0-.32,7.91,30.82,30.82,0,0,0,1.7,7.69A20.4,20.4,0,0,0,29,454.43c.08.14.15.24.23.36l.31.48a9,9,0,0,1,.64,1.3c.3.77.53,1.47.74,2.18.84,2.8,1.49,5.5,2.23,8.16.37,1.33.76,2.63,1.18,3.89a24,24,0,0,0,1.42,3.48,5.71,5.71,0,0,0,.75,1.14c.06.05.06,0,.12.1.23.22.48.47.67.68l.47.6.37.56a32.07,32.07,0,0,1,2.17,4.09c1.23,2.66,2.27,5.3,3.28,8,2,5.33,3.82,10.64,5.56,16Z"/><path class="cls-7" d="M22.91,434.18a127,127,0,0,0-8.53-19.79,25.93,25.93,0,0,0-3-4.22,38.42,38.42,0,0,0-3.95-3.51c-2.83-2.21-5.83-4.29-8.82-6.39-1.5-1-3-2.1-4.48-3.21a26.26,26.26,0,0,1-4.29-3.71,4.32,4.32,0,0,1-.8-1.41l-.18-.77c0-.26-.05-.5-.07-.76a13.52,13.52,0,0,1,.23-2.87c.33-1.85.86-3.61,1.31-5.37a19.34,19.34,0,0,0,.56-2.61,4.74,4.74,0,0,0,0-.63,1.59,1.59,0,0,0-.07-.56,2.42,2.42,0,0,0-.23-.6l-.26-.64c-.69-1.71-1.32-3.42-1.94-5.15s-1.18-3.46-1.69-5.22a23.42,23.42,0,0,1-1.1-5.36A23.72,23.72,0,0,0-13,366.69c.6,1.72,1.25,3.43,1.93,5.12s1.4,3.37,2.16,5l.29.61a4.37,4.37,0,0,1,.28.67,2.27,2.27,0,0,1,.14.79,4.42,4.42,0,0,1,0,.73,22.23,22.23,0,0,1-.45,2.77c-.38,1.8-.82,3.57-1,5.33a11.88,11.88,0,0,0-.1,2.58c0,.2,0,.41.08.61l.16.55a2.75,2.75,0,0,0,.6.92,24.49,24.49,0,0,0,4.14,3.25c1.5,1,3,2,4.58,3,3.08,2,6.19,3.9,9.21,6.06a39.39,39.39,0,0,1,4.41,3.57,28.47,28.47,0,0,1,3.55,4.58,93.23,93.23,0,0,1,5.3,9.82c1.59,3.35,3.05,6.71,4.43,10.17Z"/><path class="cls-7" d="M51.32,438.5A80.68,80.68,0,0,1,59.19,428a27.82,27.82,0,0,1,2.46-2.38,12.26,12.26,0,0,1,3.14-1.85c2-.86,4-1.6,6-2.36a102.47,102.47,0,0,0,11.56-4.94,12.69,12.69,0,0,0,2.38-1.61c.75-.72,1.47-1.47,2.17-2.24a52.45,52.45,0,0,0,3.94-4.85,38.2,38.2,0,0,0,3.23-5.33c.24-.46.44-.93.65-1.4s.43-1,.66-1.48c.45-1,.93-1.95,1.42-2.9q1.49-2.87,3.16-5.61a38.87,38.87,0,0,1,3.77-5.28,10.43,10.43,0,0,1,2.71-1.93c.94-.52,1.9-1,2.86-1.45,1.93-.92,3.88-1.78,5.82-2.66,1-.45,1.93-.88,2.86-1.38a5,5,0,0,0,.64-.4c.2-.15.4-.36.61-.53l1.23-1c1.66-1.33,3.34-2.64,5-3.94-1.63,1.36-3.26,2.74-4.86,4.14l-1.19,1.06c-.2.18-.36.36-.58.54a5,5,0,0,1-.68.48c-.93.54-1.89,1-2.84,1.5-1.9,1-3.81,1.89-5.69,2.88-.94.5-1.87,1-2.77,1.54a9.92,9.92,0,0,0-2.4,1.84,37.05,37.05,0,0,0-3.43,5.25c-1,1.84-2,3.72-2.89,5.63-.45,1-.88,1.92-1.28,2.89-.21.48-.38,1-.58,1.46s-.4,1-.63,1.52a40.73,40.73,0,0,1-3.17,5.71,56.52,56.52,0,0,1-3.9,5.21c-.7.83-1.42,1.64-2.18,2.43a15.09,15.09,0,0,1-2.8,2.09,103.74,103.74,0,0,1-11.7,5.56c-2,.84-3.92,1.66-5.78,2.54a8.73,8.73,0,0,0-2.29,1.46,23.16,23.16,0,0,0-2,2.14,76.75,76.75,0,0,0-7,10.21Z"/><path class="cls-7" d="M92.53,405.28a21.24,21.24,0,0,0,.19-3.83,8.8,8.8,0,0,0-.78-3.53,13,13,0,0,1-1-8.44,14.83,14.83,0,0,1,.53-2.06c.22-.65.55-1.37.79-1.92a15.6,15.6,0,0,0,1-3.73,23.34,23.34,0,0,0,.26-3.92c0-.66-.05-1.32-.12-2l-.07-.48,0-.59a6.71,6.71,0,0,1,.09-1.1,14.85,14.85,0,0,1,3.75-7.37,13,13,0,0,1,3.28-2.55,4.41,4.41,0,0,0,1.28-1.33c.37-.54.7-1.12,1-1.7a33.82,33.82,0,0,1,2.15-3.47,10.54,10.54,0,0,1,1.39-1.52,6.25,6.25,0,0,1,.83-.63,7.64,7.64,0,0,0,.77-.61,11.76,11.76,0,0,0,2.29-3.26,23.77,23.77,0,0,0,1.48-3.75,22.79,22.79,0,0,1-1.34,3.82,11.87,11.87,0,0,1-2.21,3.42,6.43,6.43,0,0,1-.79.68,7.36,7.36,0,0,0-.76.62,10.32,10.32,0,0,0-1.28,1.51,32.92,32.92,0,0,0-2,3.48,19.9,19.9,0,0,1-1,1.79,4.93,4.93,0,0,1-1.46,1.61,12.06,12.06,0,0,0-3,2.48,14,14,0,0,0-3.34,6.93,7.29,7.29,0,0,0,0,.92l0,.42.09.52c.1.7.16,1.39.19,2.08a23.9,23.9,0,0,1-.16,4.14,16.86,16.86,0,0,1-1,4.09c-.29.7-.5,1.2-.7,1.84a13.19,13.19,0,0,0-.43,1.86,11.37,11.37,0,0,0,1.07,7.31,10.41,10.41,0,0,1,1.12,4.28,22.28,22.28,0,0,1-.09,4.24Z"/><path class="cls-7" d="M46.33,378.24c-.45-4.07-.75-8.1-.81-12.2a53.51,53.51,0,0,1,.22-6.18,19.86,19.86,0,0,1,.53-3.16c.08-.27.15-.54.25-.81s.2-.56.3-.77l.59-1.4c1.6-3.72,3.19-7.4,5.12-11a15.13,15.13,0,0,1,.84-1.39,4.92,4.92,0,0,1,.6-.7l.54-.53L56.65,338q2.13-2.13,4.21-4.3a103.32,103.32,0,0,0,7.86-9,16.94,16.94,0,0,0,1.56-2.46,4.8,4.8,0,0,0,.44-1.29c.08-.47.15-1,.21-1.46.24-2,.36-4,.49-6,.45-8,.65-16.07.81-24.12.11,8.05.17,16.1,0,24.16-.06,2-.13,4-.3,6.06,0,.5-.1,1-.17,1.53a6,6,0,0,1-.48,1.58,19.25,19.25,0,0,1-1.58,2.68A105.74,105.74,0,0,1,62,334.72q-2,2.25-4.09,4.46l-2.09,2.2a8.46,8.46,0,0,0-.89,1,13.63,13.63,0,0,0-.68,1.22c-1.73,3.53-3.21,7.29-4.67,11L49.06,356a6.38,6.38,0,0,0-.23.64c-.07.2-.12.42-.18.63a19.27,19.27,0,0,0-.39,2.8,52.35,52.35,0,0,0,0,5.88c.16,3.95.56,7.95,1.1,11.87Z"/></g><g class="cls-8"><path class="cls-4" d="M334.11,156.62c2.88,0,11.6-1.29,14.17,2.58s2.58,10.11,0,12.14,0,5.9-5.15,4.62-12.89-1.29-14.18-2.58-1.29-7.51,0-10.2S332.82,156.62,334.11,156.62Z"/><path class="cls-4" d="M459.12,146.31c3.87-2.57,9-2.57,11.6-5.15s12.45-1.29,11.38,2.58-2.64,9.95.08,14,5.29,5.33,10.45,4,7.73,2.58,7.73,5.15,2.58,10.21,0,13.49-5.15,5.85-9,4.56-5.15-7.74-9-7.74-12.89,1.29-18,0-9.24-6.39-8.49-10.92,4.62-8.41,3.33-11S455.25,148.89,459.12,146.31Z"/><path class="cls-4" d="M273.53,250.71c-1.29-3.87-2.58-11.6,1.29-15.47s6.45-1.29,9-1.29,4.33-1.68,5.39-.84,1.06,3.42,4.92,3.42,5.16,3.87,5.16,6.44-3.72,12.89-5.73,12.89-4.58-5.83-7.8-6.13-1.94,2.27-4.51,3.55S274.82,254.57,273.53,250.71Z"/><path class="cls-4" d="M276.11,297.1c1.29,2.58,11.6,9,12.89,11.6s5.15,28.36,5.15,30.93,1.29,14.18-2.57,19.34-11.6,14.17-9,18,10.31,16.75,14.18,16.75,9,0,14.18-3.86c2.63-2,8.8-4.88,11.6,2.58,3.86,10.31-6.45,21.91,2.57,28.35,3.31,2.36,10.32,1.92,20.63-5.16,2.34-1.6,10.68,4,12,6.06,3.64,5.58,6.51,9.41,8.62,9.41,3.86,0,7.73-1.29,9-2.58s4.08-1.75,4.08-1.75c7.52-.82,11.67,1.51,14.75,1.63s16.38,1.17,21.33,0,17.83,1.41,19.12,2.7,9.76.65,13.9-2.25,17-5.48,22.19-5.48,11.32-1.17,12.1-6.39-.5-11.66,3.37-16.81,18-12.89,21.91-14.18,11.6-3.86,12.88-6.44a7.89,7.89,0,0,0,0-7.57c-1.28-2.74,0-5.32,0-7.9s0-11.6-1.28-16.75-3.87-5.16-2.58-10.31,6.44-9,9-11.6,7.73-9,7.73-12.89-2.58-7.73-5.15-10.31-4.91-2.58-7.61,0-6.57,6.44-9.15,6.44-9,2.58-10.31,1.29,1.29-1.29,0-3.86a24.14,24.14,0,0,0-7.73-9c-3.87-2.57-9-14.17-10.31-16.75s-3.87-6.44-3.87-9,10.31-11.6,14.18-14.18,12.89-6.44,15.46-11.6,3.87-12.89,1.29-16.75-5.15-11.6-7.73-14.18-14.18-9-19.33-10.31-18-7.73-20.62-11.6-16.76-19.33-18.05-19.33-7.73-12.89-9-14.18-7.73-12.89-7.73-15.46-3.87-11.6-9-12.89a115,115,0,0,1-16.76-6.45c-2.57-1.29-7.69-5.15-11.58,0s-11.52,12.88-14.15,14.18S366.33,154.05,365,157.91s-7.74,25.78-7.74,29.65,1.29,10.31-2.57,9-7.74-5.16-18.05-3.87-23.19,3.87-27.06,3.87S299.31,199.15,298,203s1.29,12.89,3.87,15.47,2.87,9,5.3,12.24,14,9.67,15.32,12.24,2.57,10.31,2.57,11.6,1.29,3.87-5.15,2.58-11.6-3.87-14.18-2.58-6.44,5.16-6.44,9-3.87,10.32-6.45,11.6-10.31,11.6-12.88,12.89S274.82,294.53,276.11,297.1Zm184.3-68.3c1.29-1.29,5.16-1.29,5.16-2.58s-2.58-3.87,0-3.87c0,0,9,0,11.59,1.29s1.29,6.45,0,7.09.4,4.45,1.49,4.48-3.86,4.09-6.54,4-1.39-5.25-4-5.25-5.74,1.43-7.38.72S459.12,230.09,460.41,228.8ZM308.64,298.39c1-1.29,3.56-1.29,4.85-2.57s2.57-6.45,1.28-7.74,1.29-5.15,1.29-3.86,1.29,5.15,2.58,5.15a55.61,55.61,0,0,1,9.34,1.18,21.4,21.4,0,0,1,4.07,1.58c-.52-.18.05,9.49.05,9.49a34,34,0,0,0-5.73-.65c-2.57,0-7.93,6.51-8.47,6.48a4.38,4.38,0,0,1-3.13-1.32c-1.28-1.29-2-3.4-3.59-3S307.67,299.68,308.64,298.39Z"/><path class="cls-5" d="M414,310s13.1-3.8,14.93-2.54-.75,7.7.54,9,4.57,5.15,7.44,0S442,303,443.46,302a50.36,50.36,0,0,1,12.24-4.35c3.42-.53,15,.76,16.31,3.34s-2.58,6.44-7.73,6.44-7.74,0-10.31,3.87-10.79,7.79-8,7.76,8.87-.75,9.71.9,2.13,2.94,7.29,1.65,10.31-1.29,12.89,3.87,3.86,7.73,3.86,10.31,5.22,2.58,10.34,0,8,0,9.8-1.93,4.16-5.8,4.9-6.45S508.1,319,512,320.3s7.89,3.87,5.88,7.09-9.74,8.38-7.17,12.24,7.74,9,6.45,12.89-3.38,14.21-1.69,16.77,3.46,8.78,0,8.89S501.65,377,499.07,377s-13.77,1-12.68,3.71-1.49,7.89-5.36,7.89-9,1.29-10.31,6.44,1.29,11.73-1.29,14.89-3.14,2.9-8,3-3.58-3.74-10-2.45-12,4-15,6.5-9.48,3.81-14.63,3.81-7.59,1.6-12.82,1.44-15.54-3.9-17.47-5.25,4.51-5.21,7.09-7.79,12.81-.17,14.78-4-.61-19.25-5.76-16.67-10,9.36-13.39,7.9-3.37-6.61-8.52-6.61-12.89-1.29-14.18,1.29.09,6.41,5.2,7.07,5.11,9.68-1.33,9.68-12.59,2.32-12.09,5,3.31,7,0,6.76-8.43-1.73-11-6.76-9.06-2.45-14.22-5-6.44-7.73-6.44-11.6,5.15-9-1.29-10.31-14.18-1.29-20.62-2.58S299.31,377,298,371.85s-1.93-9.09,0-12-1.93-11.89,3.22-14.47,7.73,0,12.89,1.29,6.44,7.74,9,11,10.84.63,13.8-1.3,8.43-.65,13.42,0,7.58,4.52,10.16,1.94,5.15-11.6,2.57-12.89-9-6.44-11.59-6.44-4.41-2.34-3.49-7,3.49-5.92,3.49-8.5-5.22-3.86-7.12-9,.67-21.91,3.25-25.77S355.88,274,360.78,273s6.78-.4,5.2,3.81-2,10.54,1.42,9.95,11.6.6,12.67,5.81-1.5,14.22-1.5,16.8-3.61,10.28-1.16,12.23,5.58,4.52,8.53,5.81a66.8,66.8,0,0,1,9.17,4.63c2.79,1.82-.65,8.28,2.36,8.92s5.24-1.34,7.35-3.58,8.39-6.1,5.25-10-5.72-9-4.43-11.6S410.79,310.64,414,310Z"/><path class="cls-5" d="M389.2,282.28c5.16-1.14,7.11-1.93,10.16,0s9.5,1.94,10.79,3.22,0,10.27-2.56,11.58-4.61,4.68-10,5.58-8,.89-8-3,3.67-6.88,3.12-7.95-5.7-3.65-5.7-4.94S386.3,282.93,389.2,282.28Z"/><path class="cls-5" d="M311.36,314.5a27.31,27.31,0,0,1,11.15-1.93c2.57,0,3.89-3.87,6.45,0s2.57,7.73,5.15,9,9.19-1.29,8.46,5.8-5.89,11-9.75,11-5.16,6.44-7.74,6.44-7.73-1.29-7.73-5.16,2.62-6.2-1.27-7.61-7.65-.55-8.34-4.2S306.67,316.44,311.36,314.5Z"/><path class="cls-5" d="M406.28,227.51c0-5.16,1.29-11.6,7.73-11.6s5.16,2.58,9,2.58,5.16-2.58,10.31,0,7.74,3.86,7.74,7.73-1.29,11.6,1.29,12.89,13.93,1.85,15.34,6.08,4,6.81,2.7,9.38-6.44,5.16-9,3.87-2.58,2.58-6.45,5.15-6.44,6.45-10.31,5.16-2.77-10.31-4.6-12.89-.55-3.86-9.57-3.86-13.23.3-15.64,2.08-5,5.65-8.85,5.65-10.31-2.58-10.31-6.45-2.58-6.44-1.29-7.73-2-2.32,6.1-3.09,4.21-3.35,9.37-5.93S406.28,231.37,406.28,227.51Z"/><path class="cls-9" d="M460.41,150.18c2.88,0,6.44-2.58,9-2.58s3.87,1.29,5.16,2.58,0,5.15-1.29,7.73,6.44,1.29,6.44,3.87-6.44,6.15-9.66,4.36-5.8-.49-5.8,2.08-5.16,3.87-7.74,2.58-.4-8.52-.84-11.35-3-1.54-5.6-5.4-2.58-6.45,1.29-6.45S457.83,150.18,460.41,150.18Z"/><path class="cls-9" d="M422.38,196.56c5.31-3.49,7.1-5.14,11-3.85s2.29,0,6.3,3.85-3.72,3.88-3.72,7.75,3.87,3.87,0,5.15-11.6,3.87-11.6-1.28-3.4-5-4.27-6.37S420.45,197.84,422.38,196.56Z"/><path class="cls-9" d="M341.84,212c6.94,0,9-1.29,9,1.29s4.28,1.36,5.36,1.33,2.69-2.88,5.11-3.39,6.43,3.42,8.29,3.39-.72,2.25-3.94,3.68-2,6-.05,8.89,6,2.12,4.62,6.35-1.72,12.39-6,12.18-5.33-.21-6.12-2.14.5-4.51,1.79-5.8-1.4-3.7-4.56-5.07-1.88,2.49-5.75,1.2-5.15-5.14-7.73-7.08-2.58-2,0-4.54S338,217,338.62,215.8,340.55,212,341.84,212Z"/><path class="cls-9" d="M412.06,269c3.58-.29,9.44,2.2,13.43,3.55s-1,4.21-1.09,6-1.72,4.37,4.9,3.72,7.52-2.61,14.16-5.49,10.27,0,14.25,1.77,2.14,2.56,1.77,5.4-1.65,2.83-5.51,4.12-3.6,2.93-5.67,6-17.33,8.2-19.36,4.33.54-6.09-5.26-4.33-2.68,4.52-6.17,5.72-4.69-1-3.45-5.72,5.11-6,2.53-8.56-3.72-5.83-7.66-8.71S408.82,269.26,412.06,269Z"/><path class="cls-9" d="M335.44,303.14c7.69,5.56,11.55-2.63,14.78-3.05s5.44,2.23,6.26,7.36-1.75,10.4-6.26,11-8.09-.25-7.59,3.39-4.66,3.64-8.52,2.35-2.94-7.73-4.05-9.67-6.53-5.73-3.82-7.05S335.1,302.9,335.44,303.14Z"/><path class="cls-9" d="M372.77,178.53c4.08-4.07,11.6-2.57,12.89-9s1.26-7,6.43-8,10.8,1.29,9.92,8.52-.21,3.51,3.32,2.79,7.46-4.24,8.72-1.19,9,7.43,5.12,13S405,192.71,403.7,194s-.41,2.65,2.38,7.77-3.67,3.83-6.24,5.12-4.87,4.79-5.66,1.11-.18-7.49-3.71-6.23-2.28,6.66-8.7,4-10-6.93-4.36-10.62-3.35-8.33-4.64-10.52S370.19,181.11,372.77,178.53Z"/><path class="cls-7" d="M384.54,549.28c.62-6.27,1.07-12.68,1.35-19,.13-3.17.23-6.33.22-9.47s-.07-6.26-.35-9.25c-.06-.74-.12-1.5-.24-2.2l-.33-2.31c-.11-.92-.3-1.88-.32-2.76l-.13-2.66a89.27,89.27,0,0,1,.56-10.17A172.55,172.55,0,0,1,388.72,472c.74-3.21,1.56-6.39,2.53-9.6.23-.79.53-1.62.78-2.43s.71-1.85.85-2.3a20.7,20.7,0,0,0,.57-2c.2-.69.34-1.49.51-2.23,1.27-6.1,2.14-12.48,2.9-18.8s1.32-12.72,1.62-19.06c.16-3.17.22-6.34.11-9.43,0-1.51-.19-3.12-.33-4.73l-.41-4.82-1.65-19.27c-.14-1.61-.29-3.18-.41-4.84l0-1.37c0-.44,0-.85.05-1.28,0-.85.1-1.65.16-2.47.28-3.25.57-6.41.73-9.59a93.49,93.49,0,0,0,0-9.47c-.15-1.56-.21-3.14-.48-4.67-.12-.77-.19-1.56-.35-2.32l-.49-2.28a18.66,18.66,0,0,0-.62-2.25c-.24-.74-.42-1.5-.7-2.22a33.28,33.28,0,0,0-1.91-4.21c-.38-.67-.7-1.38-1.13-2l-1.34-1.88a22.37,22.37,0,0,0-1.44-1.88l-1.53-1.86c-4.1-4.93-8.38-9.74-12.65-14.58-2.12-2.43-4.25-4.87-6.29-7.39a37.72,37.72,0,0,1-5.39-8.23,18.3,18.3,0,0,1-1-4.9q-.21-2.42-.36-4.83c-.2-3.22-.36-6.44-.62-9.65-.13-1.6-.27-3.2-.49-4.79a24.81,24.81,0,0,0-1-4.7,7.62,7.62,0,0,0-1.1-2.09c-.45-.67-.92-1.32-1.4-2a47.45,47.45,0,0,0-3.09-3.71,44.15,44.15,0,0,1,3.21,3.62c.5.63,1,1.27,1.47,1.92a8.28,8.28,0,0,1,1.21,2.13,25.65,25.65,0,0,1,1.13,4.73c.27,1.59.46,3.2.64,4.8.36,3.21.63,6.43.94,9.63.15,1.6.31,3.2.51,4.79a17,17,0,0,0,1,4.53,36.7,36.7,0,0,0,5.43,7.72c2.09,2.42,4.28,4.78,6.48,7.13,4.41,4.69,8.86,9.37,13.16,14.21l1.6,1.83c.54.61,1.07,1.21,1.57,1.9l1.52,2c.49.68.87,1.44,1.31,2.15a35.71,35.71,0,0,1,2.22,4.52c.33.77.55,1.57.84,2.36a22.66,22.66,0,0,1,.73,2.39l.61,2.43c.19.81.3,1.63.46,2.44.33,1.63.45,3.28.66,4.92a95.68,95.68,0,0,1,.3,9.86c-.06,3.27-.26,6.53-.42,9.72,0,.79-.08,1.59-.08,2.35,0,.37,0,.77,0,1.14l.05,1,.55,4.78,2.28,19.21.56,4.8c.2,1.6.4,3.18.51,4.9.23,3.34.26,6.63.2,9.9-.1,6.54-.48,13-1,19.51s-1.23,12.94-2.37,19.5c-.17.84-.28,1.64-.49,2.5a25.18,25.18,0,0,1-.69,2.67c-.34,1.09-.51,1.54-.75,2.27s-.43,1.43-.62,2.19c-.8,3-1.5,6.08-2.1,9.18a163.88,163.88,0,0,0-2.67,18.67,82.84,82.84,0,0,0-.22,9.14l.18,2.17c0,.73.21,1.35.3,2l.2,1.13.24,1.33c.17.89.27,1.74.37,2.59.42,3.42.61,6.75.71,10s.12,6.59.09,9.87c-.08,6.56-.33,13-.75,19.61Z"/><path class="cls-7" d="M388.1,479.16c-1.64-6-3.45-12-5.51-17.78a62.17,62.17,0,0,0-3.46-8.24,8.57,8.57,0,0,0-.89-1.37l-.07-.09-.35-.35a7,7,0,0,1-.59-.69,10.85,10.85,0,0,1-.85-1.33,26.21,26.21,0,0,1-1.95-4.91c-.95-3.18-1.61-6.31-2.26-9.4l-1-4.58c-.17-.75-.35-1.49-.54-2.2a15.76,15.76,0,0,0-.62-1.93c0-.2-.74-1.27-1.07-2s-.7-1.57-1-2.36a38.13,38.13,0,0,1-1.4-4.81,39.76,39.76,0,0,1,.56-19.55c.85-3.11,1.91-6.11,3-9.08s2.11-5.9,3-8.88a29,29,0,0,0,1.31-9,14.93,14.93,0,0,0-.25-2.22c-.15-.71-.35-1.47-.56-2.23l-1.29-4.53c-.88-3-1.75-6.06-2.52-9.12a81.22,81.22,0,0,1-1.86-9.29,34.06,34.06,0,0,1-.31-4.73,14.67,14.67,0,0,1,.7-4.66,14.62,14.62,0,0,0-.48,4.66,34.8,34.8,0,0,0,.53,4.66,81.62,81.62,0,0,0,2.29,9.12c.91,3,1.92,6,2.93,9l1.52,4.48c.24.75.48,1.5.7,2.32a18.67,18.67,0,0,1,.4,2.45,31.32,31.32,0,0,1-.93,9.68c-.72,3.12-1.66,6.16-2.57,9.17s-1.8,6-2.48,9a36,36,0,0,0,.32,17.82,35.07,35.07,0,0,0,1.44,4.19c.29.67.6,1.32.93,1.94.17.29.34.61.52.86l.32.5a6.48,6.48,0,0,1,.41.75,19.2,19.2,0,0,1,1,2.51c.25.8.48,1.58.69,2.36l1.22,4.6c.79,3,1.59,6,2.58,8.85a20.8,20.8,0,0,0,1.69,3.78,4.66,4.66,0,0,0,.45.64,1.68,1.68,0,0,0,.19.19l.41.4a13,13,0,0,1,1.86,2.46,66.49,66.49,0,0,1,4.24,9c2.4,6,4.46,11.94,6.42,18Z"/><path class="cls-7" d="M366.69,399a147.37,147.37,0,0,0-10-23,30.34,30.34,0,0,0-3.47-4.93,46.92,46.92,0,0,0-4.63-4.07c-3.3-2.57-6.79-5-10.28-7.4-1.74-1.21-3.49-2.44-5.21-3.71-.86-.63-1.71-1.29-2.55-2a18,18,0,0,1-2.42-2.3,5.13,5.13,0,0,1-.91-1.6l-.21-.88c-.05-.29-.05-.58-.08-.87a14.47,14.47,0,0,1,.26-3.31c.37-2.14,1-4.19,1.5-6.23a22.66,22.66,0,0,0,.63-3.05,3.78,3.78,0,0,0,.05-.74v-.36a2.38,2.38,0,0,0-.07-.31,4,4,0,0,0-.27-.71l-.31-.74c-.81-2-1.55-4-2.27-6s-1.39-4-2-6.06a27.18,27.18,0,0,1-1.29-6.23,27.37,27.37,0,0,0,1.53,6.16c.68,2,1.43,4,2.22,5.95s1.61,3.92,2.49,5.85l.33.71a4.34,4.34,0,0,1,.33.77,3.9,3.9,0,0,1,.12.46l0,.43a4.78,4.78,0,0,1,0,.85,22,22,0,0,1-.53,3.2c-.45,2.09-1,4.14-1.24,6.2a13.4,13.4,0,0,0-.12,3c0,.24,0,.49.09.72l.19.66a3.33,3.33,0,0,0,.71,1.11,29.63,29.63,0,0,0,4.83,3.81c1.74,1.18,3.52,2.32,5.3,3.47,3.58,2.28,7.18,4.56,10.67,7.06a47.88,47.88,0,0,1,5.09,4.15,32.47,32.47,0,0,1,4.07,5.29,109.7,109.7,0,0,1,6.11,11.39c1.83,3.89,3.52,7.8,5.1,11.82Z"/><path class="cls-7" d="M399.67,404.25a92.24,92.24,0,0,1,9.07-12.15,29.55,29.55,0,0,1,2.83-2.75,13.84,13.84,0,0,1,3.57-2.12c2.34-1,4.65-1.86,7-2.75a119,119,0,0,0,13.44-5.79,15.11,15.11,0,0,0,2.8-1.91q1.29-1.26,2.52-2.61a63.65,63.65,0,0,0,4.57-5.67,44.85,44.85,0,0,0,3.75-6.22c.28-.54.51-1.09.76-1.64s.49-1.15.75-1.72c.52-1.14,1.08-2.25,1.64-3.37Q454,352.23,456,349a44.32,44.32,0,0,1,4.35-6.13,12.37,12.37,0,0,1,3.12-2.24c1.09-.6,2.21-1.15,3.32-1.69,2.24-1.08,4.5-2.08,6.75-3.11,1.12-.52,2.24-1,3.32-1.61a6.84,6.84,0,0,0,.75-.47c.23-.18.46-.42.7-.61l1.43-1.19c1.92-1.56,3.87-3.08,5.82-4.6-1.9,1.58-3.79,3.17-5.66,4.79l-1.38,1.23c-.24.21-.43.42-.68.63a5.29,5.29,0,0,1-.79.54c-1.08.64-2.19,1.18-3.3,1.74-2.21,1.11-4.43,2.19-6.62,3.33-1.09.57-2.18,1.15-3.22,1.78a11.55,11.55,0,0,0-2.82,2.15,42.54,42.54,0,0,0-4,6.1c-1.21,2.13-2.34,4.32-3.38,6.54-.52,1.11-1,2.22-1.5,3.35-.24.56-.45,1.13-.68,1.7s-.46,1.18-.73,1.75a47.92,47.92,0,0,1-3.69,6.61,64.41,64.41,0,0,1-4.53,6c-.81,1-1.65,1.9-2.53,2.81a17.4,17.4,0,0,1-3.22,2.39,120.34,120.34,0,0,1-13.58,6.41c-2.27,1-4.56,1.92-6.74,2.93a10.29,10.29,0,0,0-2.73,1.74,28.62,28.62,0,0,0-2.4,2.5,89.19,89.19,0,0,0-8.26,11.88Z"/><path class="cls-7" d="M447.42,365.51a24.89,24.89,0,0,0,.22-4.49,10.28,10.28,0,0,0-.94-4.15,12.84,12.84,0,0,1-1.43-4.81,17.56,17.56,0,0,1,.22-4.91,16.29,16.29,0,0,1,.61-2.38c.14-.38.26-.77.44-1.15l.47-1.07a17.92,17.92,0,0,0,1.19-4.36,26,26,0,0,0,.3-4.58,21.83,21.83,0,0,0-.15-2.29l-.08-.56-.06-.66a7.39,7.39,0,0,1,.1-1.26,17.1,17.1,0,0,1,4.33-8.53,15,15,0,0,1,3.78-3,5,5,0,0,0,1.5-1.57c.43-.63.82-1.3,1.21-2a34.36,34.36,0,0,1,2.48-4,11.69,11.69,0,0,1,1.6-1.77,8.38,8.38,0,0,1,1-.73,6.85,6.85,0,0,0,.9-.71,14.09,14.09,0,0,0,2.65-3.8,28.29,28.29,0,0,0,1.71-4.37,27.25,27.25,0,0,1-1.57,4.44,14,14,0,0,1-2.57,4,6.89,6.89,0,0,1-.92.78,8.75,8.75,0,0,0-.89.72,11.46,11.46,0,0,0-1.49,1.76,35.59,35.59,0,0,0-2.32,4c-.37.7-.74,1.4-1.17,2.08a6,6,0,0,1-1.68,1.84,14.11,14.11,0,0,0-3.54,2.88,16.26,16.26,0,0,0-3.91,8.1,7.76,7.76,0,0,0-.06,1.07l.06.51.1.6c.11.8.18,1.6.22,2.4a28.57,28.57,0,0,1-.2,4.8,19.19,19.19,0,0,1-1.17,4.72c-.32.79-.58,1.4-.82,2.14a18.1,18.1,0,0,0-.5,2.18,13.36,13.36,0,0,0,1.24,8.58,12.15,12.15,0,0,1,1.28,4.91,25.92,25.92,0,0,1-.12,4.9Z"/><path class="cls-7" d="M393.84,334c-.53-4.71-.89-9.39-1-14.13a63.74,63.74,0,0,1,.23-7.16,26.34,26.34,0,0,1,.61-3.64c.1-.31.17-.62.29-.93s.22-.63.34-.89l.68-1.62c1.86-4.32,3.69-8.61,5.92-12.83a17.24,17.24,0,0,1,1-1.59,4.66,4.66,0,0,1,.68-.8l.62-.61,2.49-2.46c1.64-1.66,3.27-3.33,4.87-5a119.65,119.65,0,0,0,9.12-10.53,22,22,0,0,0,1.82-2.88,5.65,5.65,0,0,0,.5-1.52c.1-.56.18-1.13.25-1.7.27-2.3.41-4.64.55-7,.5-9.33.72-18.68.88-28,.1,9.35.15,18.7-.09,28.06-.08,2.34-.15,4.68-.36,7-.05.59-.12,1.18-.21,1.78a6.79,6.79,0,0,1-.54,1.8,22.61,22.61,0,0,1-1.84,3.1,118.89,118.89,0,0,1-8.92,10.92c-1.57,1.75-3.15,3.47-4.76,5.18l-2.43,2.55a8.42,8.42,0,0,0-1,1.17c-.27.42-.54.94-.8,1.44-2,4.1-3.76,8.47-5.47,12.79l-.63,1.63c-.12.28-.19.52-.27.76s-.14.5-.21.75a21.59,21.59,0,0,0-.47,3.28,62.63,62.63,0,0,0-.08,6.86c.19,4.6.64,9.24,1.26,13.81Z"/></g><path class="cls-2" d="M99.79,201.46C93,206,86.3,204.21,76.44,197.31c-11-7.73-23.77,8.13-25.65,12.32s-7.56,21.33,0,28.5S65.34,248.78,67,254s-3.06,15.36-3.15,20.45,4.22,15.34,1.57,22-6.67,20.69,7.87,23.6c7.87,1.58,11.48,0,12.59,4.72s-3.15,3.15-6.3,4.72c-5.8,2.9-7.64,3.41-11,6.29s-3.64,17.82,0,22,7.87,11,12.59,11,8.76-3.46,11-3.14a14.05,14.05,0,0,1,7.86,4.72c2.11,2.59,7.87,3.14,11,1.57s7.86-4.94,7.86-6.29,3-3.62,4.72-1.58,1.58,1.58,7.87,1.58,18.88,4.72,23.6,7.86,10.22.79,16.52.79,13.91-4.75,18.75-4.73,22.15,0,26.87,1.58S233,368,239.26,368s19,6.29,25.23,6.29,6.88-8.12,11.28-12.71,6.76-5.38,11.48-3.81,3.27,2.55,9.89,4,12.92,1.48,17.64-.88,7.86-2.36,7.86-10.23-1.61-11.91-.78-18.09-.3-10.35,6.29-7.87,5.79,4.44,11.94,4.19,12.44-.26,15.59-5,14.16-20.46,15.73-23.6.1-9.54-6.24-15-5.56-11-7.13-14.11-2-20.19,0-25.17c1.88-4.73,2.36-13.72,2.36-18.27s5.81-10.33,10.23-11.62,10.22-10,9.44-17.3-7.87-7.87-11-12.59-7.42-7.46-9.44-11-4.63-5.06-5.07-10,3.5-8.08,6.65-7.3,5.92,3.49,11,1.57,11-7.86,11-12.58,4.72-6,1.58-14.16a24.32,24.32,0,0,0-14.27-14.48c-5.4-2-29,12.12-55.74,3.47S215,100.87,201.19,106.22s-57.38,24.54-71.8,32.25S113,172.09,111.61,180.38,99.79,201.46,99.79,201.46Z"/><path class="cls-4" d="M103.18,181.58a7,7,0,0,0-3.15-7.87c-4.71-3.14-14.15-6.29-15.73-6.29s-4.72,0-4.72-1.57S73.29,162.7,67,164.27s-11,4.41-9.44,11.65-2.19,11-.31,13.06,6.6,3.61,8.17,2,3.15-3.15,4.72-1.57,6.48,9.07,9.53,10.83S89,202,92.17,198.89s7.87-9.44,8.65-11.8A53.37,53.37,0,0,1,103.18,181.58Z"/><path class="cls-4" d="M114.19,346.77c2.49-2.49,1.51-9.44-3.18-12.59s-9.4-7.86-12.55-6.29-1.57,4.72-3.14,4.72S79.63,334,76.46,337.22s-4.74,15.84-1.6,19,4.72,7.86,7.87,6.29,9.44-7.87,12.59-4.72,9.43,7.87,12.58,7.87,6.29-4.72,6.29-7.87-3.14-4.72-3.14-7.87S112.62,348.34,114.19,346.77Z"/><path class="cls-4" d="M301.41,33.7c-3.52,0-14.16-1.58-17.31,3.14s-3.15,12.35,0,14.83,0,7.2,6.29,5.63,15.74-1.58,17.31-3.15,1.57-9.17,0-12.45S303,33.7,301.41,33.7Z"/><path class="cls-4" d="M148.8,21.11c-4.72-3.14-11-3.14-14.15-6.29s-15.2-1.57-13.89,3.15,3.22,12.15-.1,17.09-6.47,6.5-12.76,4.93-9.44,3.15-9.44,6.29-3.14,12.47,0,16.46,6.29,7.14,11,5.57,6.3-9.44,11-9.44,15.73,1.57,22,0,11.28-7.8,10.36-13.34-5.64-10.26-4.07-13.41S153.52,24.26,148.8,21.11Z"/><path class="cls-4" d="M375.35,148.54c1.57-4.72,3.14-14.16-1.58-18.88s-7.86-1.57-11-1.57-5.28-2-6.57-1-1.3,4.18-6,4.18-6.29,4.72-6.29,7.86,4.54,15.74,7,15.74,5.6-7.12,9.53-7.49,2.36,2.77,5.51,4.34S373.77,153.26,375.35,148.54Z"/><path class="cls-4" d="M367.48,194.17c-3.15-1.58-12.59-14.16-15.73-15.74s-7.87-9.44-7.87-14.16-4.72-9.43-7.86-11-9.44,1.58-17.31,3.15-6.29-1.57-6.29-3.15,1.57-11,3.14-14.16,15.74-11,18.7-14.94,3.33-11.8,6.48-15,6.29-14.16,4.72-18.88S336,82.47,331.3,82.47s-20.46-3.15-33-4.72-17.31,3.14-22,4.72-3.14-6.3-3.14-11S265.22,40,263.65,35.27s-11-22-14.22-23.6S236.9.66,232.16-5.63s-11-1.58-14.13,0S203.87.66,197.57,2.23s-11,12.59-11,15.74-7.86,17.3-9.44,18.87-9.44,17.31-11,17.31-18.88,18.88-22,23.6-18.87,12.58-25.17,14.16-20.45,9.44-23.59,12.58S89,117.08,85.88,121.8,84.3,136,87.45,142.25s14.16,11,18.88,14.16,17.3,14.16,17.3,17.3-3.14,7.87-4.72,11-7.86,17.3-12.58,20.45a29.37,29.37,0,0,0-9.44,11c-1.57,3.15,1.57,3.15,0,4.72s-9.44-1.57-12.59-1.57-7.86-4.72-11.16-7.87-6.14-3.15-9.29,0-6.29,7.87-6.29,12.59,6.29,12.58,9.44,15.73,9.44,7.86,11,14.16-1.57,6.29-3.15,12.58S73.29,283.84,73.29,287s1.57,6.3,0,9.64a9.65,9.65,0,0,0,0,9.24c1.57,3.15,11,6.3,15.73,7.87s22,11,26.75,17.3,3.14,14.16,4.1,20.53,8.48,7.79,14.78,7.79,22,3.15,27.08,6.69,15.39,4.33,17,2.75S196,364.07,202,365.5s22.28.15,26,0,8.82-3,18-2c0,0,3.41.56,5,2.14s6.3,3.14,11,3.14c2.57,0,6.07-4.67,10.51-11.49,1.62-2.47,11.8-9.35,14.66-7.39,12.58,8.64,21.13,9.18,25.17,6.3,11-7.87-1.58-22,3.14-34.61,3.42-9.11,10.95-5.56,14.16-3.15,6.3,4.72,12.59,4.72,17.31,4.72s14.16-15.73,17.3-20.45-6.29-15.74-11-22-3.15-20.45-3.15-23.6,4.72-34.61,6.3-37.75,14.16-11,15.73-14.16S370.63,195.74,367.48,194.17ZM146.8,129c-2,.87-5.86-.87-9-.87s-1.57,6.29-4.84,6.41-9.32-4.84-8-4.87,3.39-4.69,1.82-5.47-3.15-7.08,0-8.65,14.16-1.58,14.16-1.58c3.14,0,0,3.15,0,4.72s4.72,1.57,6.29,3.15S148.8,128.09,146.8,129Zm182.59,83.59c-1.91-.5-2.81,2.07-4.39,3.64a5.25,5.25,0,0,1-3.81,1.61c-.66,0-7.2-7.9-10.35-7.9a41.49,41.49,0,0,0-7,.79s.69-11.8.06-11.59a26.71,26.71,0,0,1,5-1.92c1.18-.14,6.43-1.44,11.4-1.44,1.58,0,3.15-4.72,3.15-6.29s3.15,3.14,1.57,4.72,0,7.86,1.58,9.43,4.72,1.58,5.91,3.15S331.3,213,329.39,212.55Z"/><path class="cls-5" d="M203.87,220.91s-16-4.64-18.22-3.11.91,9.4-.66,11-5.58,6.29-9.09,0-6.17-16.42-8-17.65-10.76-4.68-14.94-5.32-18.33.94-19.91,4.09,3.15,7.86,9.44,7.86,9.44,0,12.59,4.72,13.17,9.51,9.73,9.48S154,231,153,233.06s-2.6,3.58-8.9,2-12.58-1.57-15.73,4.72-4.72,9.44-4.72,12.58-6.36,3.15-12.62,0-9.79,0-12-2.36-5.07-7.07-6-7.86-4-10.23-8.77-8.65-9.63,4.72-7.17,8.65S89,252.37,85.88,257.09s-9.44,11-7.87,15.74,4.13,17.34,2.06,20.47-4.23,10.71,0,10.85,16.82-1.43,20-1.43,16.82,1.2,15.49,4.53,1.82,9.63,6.54,9.63,11,1.57,12.59,7.86-1.58,14.31,1.57,18.17,3.84,3.54,9.78,3.7,4.38-4.56,12.24-3,14.63,4.86,18.33,7.94,11.56,4.65,17.86,4.65,9.26,2,15.64,1.76,19-4.77,21.33-6.41-5.51-6.37-8.66-9.51-15.64-.21-18-4.83.74-23.49,7-20.34,12.24,11.42,16.35,9.64,4.1-8.07,10.4-8.07,15.73-1.57,17.3,1.57-.11,7.84-6.35,8.64-6.23,11.81,1.63,11.81,15.37,2.84,14.76,6.14-4.05,8.49,0,8.26,10.28-2.12,13.47-8.26,11.06-3,17.36-6.14,7.86-9.44,7.86-14.15-6.29-11,1.58-12.59,17.3-1.57,25.17-3.15,12.58-7.86,14.16-14.16,2.36-11.09,0-14.59,2.36-14.51-3.94-17.66-9.44,0-15.73,1.58-7.87,9.45-11,13.37-13.23.77-16.84-1.58-10.29-.8-16.39,0-9.25,5.51-12.4,2.37-6.29-14.16-3.14-15.74,11-7.86,14.16-7.86,5.37-2.86,4.26-8.51-4.26-7.22-4.26-10.37,6.36-4.72,8.69-11-.83-26.75-4-31.47-10.07-18-16.05-19.22-8.27-.49-6.34,4.65,2.45,12.87-1.74,12.15-14.15.73-15.46,7.08,1.83,17.37,1.83,20.51,4.41,12.55,1.42,14.93-6.82,5.53-10.41,7.1A79.85,79.85,0,0,0,227,247.8c-3.42,2.21.78,10.11-2.89,10.88s-6.4-1.63-9-4.36-10.24-7.45-6.41-12.17,7-11,5.41-14.16S207.8,221.7,203.87,220.91Z"/><path class="cls-5" d="M234.15,187.09c-6.3-1.4-8.68-2.36-12.4,0s-11.59,2.36-13.16,3.93-.05,12.53,3.12,14.13,5.62,5.72,12.26,6.81,9.79,1.08,9.79-3.64-4.48-8.39-3.82-9.7,7-4.45,7-6S237.69,187.87,234.15,187.09Z"/><path class="cls-5" d="M329.17,226.42a33.28,33.28,0,0,0-13.61-2.36c-3.14,0-4.75-4.72-7.88,0s-3.13,9.44-6.27,11-11.23-1.57-10.34,7.08,7.19,13.37,11.91,13.37,6.29,7.87,9.44,7.87,9.44-1.58,9.44-6.3-3.2-7.57,1.55-9.29,9.34-.67,10.19-5.13S334.9,228.78,329.17,226.42Z"/><path class="cls-5" d="M213.31,120.22c0-6.29-1.58-14.15-9.44-14.15s-6.3,3.14-11,3.14-6.29-3.14-12.58,0-9.44,4.72-9.44,9.44,1.57,14.16-1.57,15.73-17,2.27-18.74,7.43-4.86,8.31-3.29,11.45,7.87,6.29,11,4.72,3.15,3.15,7.87,6.29,7.87,7.87,12.59,6.3,3.38-12.59,5.62-15.73.67-4.72,11.68-4.72,16.15.37,19.09,2.54,6.08,6.89,10.8,6.89,12.59-3.14,12.59-7.86,3.14-7.87,1.57-9.44,2.41-2.83-7.45-3.78-5.14-4.09-11.43-7.23S213.31,124.94,213.31,120.22Z"/><g class="cls-10"><path class="cls-11" d="M147.23,25.83c-3.52,0-7.87-3.14-11-3.14s-4.72,1.57-6.29,3.14,0,6.29,1.57,9.44-7.87,1.57-7.87,4.72,7.87,7.51,11.8,5.33,7.08-.61,7.08,2.54S148.8,52.58,152,51s.49-10.39,1-13.85,3.69-1.88,6.84-6.6,3.14-7.86-1.58-7.86S150.38,25.83,147.23,25.83Z"/><path class="cls-11" d="M193.65,82.45c-6.47-4.26-8.66-6.28-13.38-4.7s-2.79,0-7.69,4.7,4.54,4.74,4.54,9.46-4.72,4.72,0,6.29,14.16,4.72,14.16-1.57,4.15-6.1,5.22-7.77S196,84,193.65,82.45Z"/><path class="cls-11" d="M292,101.35c-8.48,0-11-1.58-11,1.57s-5.22,1.66-6.54,1.62-3.28-3.51-6.23-4.14-7.85,4.18-10.13,4.14.88,2.75,4.81,4.5,2.5,7.37.07,10.85-7.28,2.58-5.64,7.75,2.09,15.13,7.37,14.87,6.5-.26,7.46-2.62-.61-5.51-2.18-7.08,1.71-4.52,5.58-6.19,2.29,3,7,1.47,6.29-6.28,9.44-8.64,3.14-2.42,0-5.54,4.72-6.53,3.93-8S293.54,101.35,292,101.35Z"/><path class="cls-11" d="M206.25,170.88c-4.37-.35-11.52,2.68-16.39,4.33s1.23,5.14,1.33,7.33,2.1,5.33-6,4.55-9.19-3.2-17.29-6.71-12.53,0-17.4,2.16-2.6,3.13-2.16,6.59,2,3.46,6.74,5,4.38,3.57,6.91,7.29,21.15,10,23.64,5.29-.66-7.44,6.42-5.29,3.27,5.52,7.53,7,5.73-1.27,4.21-7-6.24-7.29-3.09-10.44,4.54-7.13,9.35-10.64S210.2,171.19,206.25,170.88Z"/><path class="cls-11" d="M299.78,212.55c-9.39,6.79-14.11-3.22-18-3.72s-6.64,2.72-7.65,9,2.14,12.7,7.65,13.41,9.87-.31,9.26,4.14,5.69,4.44,10.41,2.87,3.58-9.44,4.94-11.8,8-7,4.65-8.62S300.19,212.25,299.78,212.55Z"/><path class="cls-11" d="M254.21,60.44c-5-5-14.16-3.14-15.73-11s-1.54-8.54-7.85-9.78-13.19,1.58-12.11,10.4.25,4.29-4.06,3.41-9.1-5.18-10.63-1.46-11,9.07-6.26,15.84,17.31,9.91,18.88,11.48.5,3.23-2.89,9.48,4.47,4.68,7.61,6.25,6,5.85,6.91,1.36.22-9.14,4.52-7.61,2.79,8.14,10.63,4.84,12.24-8.45,5.32-13,4.09-10.17,5.66-12.84S257.36,63.59,254.21,60.44Z"/></g><path class="cls-7" d="M228.78,514c-.55-8-.87-15.89-1-23.88,0-4,0-8,.08-12s.32-8.05.82-12.18c.13-1,.23-2,.45-3.12l.28-1.59.13-.76.1-.63.21-1.26a9,9,0,0,0,.16-1.31l.22-2.69a101.79,101.79,0,0,0-.31-11.27,201.38,201.38,0,0,0-3.34-22.89c-.75-3.79-1.61-7.58-2.61-11.25-.24-.93-.52-1.8-.78-2.7s-.53-1.51-.92-2.77a30.11,30.11,0,0,1-.83-3.18c-.26-1-.4-2-.6-3-1.4-8-2.23-15.81-2.95-23.72s-1.17-15.81-1.32-23.78c-.08-4-.05-8,.22-12,.13-2.07.37-4,.59-6l.68-5.86,2.71-23.46.66-5.83a44.1,44.1,0,0,0-.07-5.6c-.21-3.9-.47-7.87-.55-11.85-.16-7.95.27-16.06,2.38-23.89a47.77,47.77,0,0,1,4.54-11.27,39,39,0,0,1,3.43-5c.63-.81,1.28-1.56,1.93-2.3l1.94-2.23c5.23-5.92,10.65-11.65,16-17.39,2.68-2.88,5.34-5.76,7.89-8.74a44.32,44.32,0,0,0,6.63-9.47,20.76,20.76,0,0,0,1.23-5.57c.24-1.95.44-3.9.62-5.86.36-3.91.67-7.83,1.1-11.75.22-2,.44-3.92.77-5.87a31.21,31.21,0,0,1,1.36-5.77,9.54,9.54,0,0,1,1.47-2.58c.57-.81,1.17-1.59,1.78-2.36a53,53,0,0,1,3.91-4.42,56.16,56.16,0,0,0-3.79,4.51q-.88,1.18-1.71,2.4a9.28,9.28,0,0,0-1.36,2.56,30.71,30.71,0,0,0-1.2,5.73c-.27,1.94-.44,3.9-.61,5.86-.32,3.91-.53,7.84-.79,11.77-.13,2-.27,3.93-.46,5.9a21.58,21.58,0,0,1-1.17,5.93,45.48,45.48,0,0,1-6.58,10c-2.49,3.08-5.1,6-7.7,9-5.22,5.9-10.47,11.75-15.5,17.77l-1.87,2.26c-.63.76-1.25,1.52-1.8,2.27a34.79,34.79,0,0,0-3.07,4.79,44.18,44.18,0,0,0-4,10.67c-1.8,7.45-2,15.25-1.66,23,.18,3.88.54,7.76.86,11.71a49.51,49.51,0,0,1,.22,6.19l-.51,5.91-2.09,23.51-.52,5.88c-.18,2-.37,3.93-.43,5.8-.15,3.79-.08,7.68.1,11.56.35,7.76,1,15.55,1.92,23.31s1.95,15.53,3.48,23c.2.92.37,1.89.62,2.75a25.1,25.1,0,0,0,.71,2.51c.19.62.68,1.84,1,2.8s.66,2,.94,2.94c1.17,3.9,2.15,7.77,3,11.67A210,210,0,0,1,238,442.51a110.36,110.36,0,0,1,.65,12.29l-.16,3.2a13.68,13.68,0,0,1-.17,1.63l-.22,1.65-.42,2.85c-.15.86-.22,1.8-.31,2.72-.35,3.7-.46,7.54-.46,11.38s.09,7.73.23,11.61c.33,7.74.85,15.57,1.58,23.26Z"/><path class="cls-7" d="M228,425.23c2.35-7.42,4.84-14.72,7.73-22a79.87,79.87,0,0,1,5.1-10.87,14.89,14.89,0,0,1,2.16-2.89l.5-.48a2.13,2.13,0,0,0,.27-.3,3.31,3.31,0,0,0,.3-.39,4.6,4.6,0,0,0,.3-.46,27,27,0,0,0,2.09-4.74c1.2-3.47,2.16-7.16,3.11-10.86.48-1.86,1-3.73,1.46-5.62.26-.94.53-1.89.83-2.86a23.63,23.63,0,0,1,1.13-3,7.15,7.15,0,0,1,.48-.87l.39-.6c.22-.33.43-.73.64-1.09.41-.77.79-1.58,1.15-2.41a43.34,43.34,0,0,0,1.75-5.19,44.48,44.48,0,0,0,.29-21.95c-.84-3.67-2-7.32-3.08-11s-2.29-7.36-3.18-11.16a37.51,37.51,0,0,1-1.17-11.74,20,20,0,0,1,.47-3c.25-1,.54-1.91.84-2.82l1.82-5.48c1.23-3.64,2.44-7.28,3.54-10.95a100.17,100.17,0,0,0,2.74-11.15,42.06,42.06,0,0,0,.62-5.71,17.92,17.92,0,0,0-.6-5.69,18.3,18.3,0,0,1,.83,5.7,41.11,41.11,0,0,1-.41,5.76,98.88,98.88,0,0,1-2.31,11.33c-1,3.73-2,7.43-3.13,11.11l-1.59,5.53c-.27.92-.52,1.85-.71,2.73a20.75,20.75,0,0,0-.32,2.73A35.49,35.49,0,0,0,253.64,306c1,3.65,2.29,7.25,3.56,10.88s2.55,7.29,3.57,11.07a48.21,48.21,0,0,1,.59,23.67,46.3,46.3,0,0,1-1.71,5.8c-.37.95-.76,1.9-1.22,2.84s-1.22,2.1-1.33,2.45a19.68,19.68,0,0,0-.79,2.42c-.24.88-.46,1.79-.67,2.71-.43,1.83-.82,3.71-1.23,5.59-.81,3.77-1.63,7.57-2.79,11.41a31.05,31.05,0,0,1-2.36,5.87c-.13.25-.28.51-.45.77s-.33.51-.54.77a6.77,6.77,0,0,1-.67.8l-.4.39-.11.14a10.13,10.13,0,0,0-1.2,1.79,76.1,76.1,0,0,0-4.31,10.14c-2.55,7.1-4.78,14.44-6.82,21.73Z"/><path class="cls-7" d="M257.45,328c1.91-4.89,4-9.67,6.17-14.41a132.33,132.33,0,0,1,7.39-13.9,39.42,39.42,0,0,1,4.9-6.42,59.36,59.36,0,0,1,6.16-5.05c4.25-3.06,8.63-5.85,13-8.66,2.18-1.4,4.35-2.81,6.47-4.26,1.07-.72,2.1-1.48,3.13-2.24a20.85,20.85,0,0,0,2.78-2.46,3.91,3.91,0,0,0,.89-1.41,6.73,6.73,0,0,0,.35-1.72,18,18,0,0,0-.17-3.72c-.36-2.52-1-5-1.55-7.57a29,29,0,0,1-.67-3.89,5.77,5.77,0,0,1,.14-2.09,8.4,8.4,0,0,1,.42-.93l.4-.87c1.06-2.36,2.06-4.75,3-7.15s1.87-4.83,2.69-7.28a33.19,33.19,0,0,0,1.84-7.52,33,33,0,0,1-1.6,7.59c-.75,2.49-1.58,4.94-2.46,7.38s-1.8,4.87-2.79,7.27l-.38.9c-.12.29-.29.64-.35.85a5,5,0,0,0-.05,1.77,31.44,31.44,0,0,0,.77,3.74c.63,2.5,1.36,5,1.81,7.61a18.31,18.31,0,0,1,.31,4,8.11,8.11,0,0,1-.36,2.09,5.36,5.36,0,0,1-1.1,1.9,21.84,21.84,0,0,1-2.93,2.78c-1,.82-2.06,1.62-3.12,2.38-2.1,1.55-4.23,3-6.37,4.5-4.26,2.95-8.53,5.87-12.59,9a54.81,54.81,0,0,0-5.69,5,35.9,35.9,0,0,0-4.31,6.06A130.94,130.94,0,0,0,266.81,315c-2,4.72-3.9,9.54-5.6,14.35Z"/><path class="cls-7" d="M217.57,338.26a109.23,109.23,0,0,0-10.16-14.54,33.6,33.6,0,0,0-3-3.08,12.85,12.85,0,0,0-3.42-2.16c-2.67-1.24-5.47-2.39-8.25-3.56s-5.58-2.35-8.35-3.6a84.24,84.24,0,0,1-8.21-4.15,20.55,20.55,0,0,1-3.88-2.87q-1.6-1.65-3.09-3.41a77.11,77.11,0,0,1-5.54-7.31,56.78,56.78,0,0,1-4.5-8c-.33-.69-.61-1.41-.9-2.13s-.54-1.39-.84-2.07c-.58-1.38-1.2-2.74-1.84-4.1q-1.93-4.06-4.16-8a53.4,53.4,0,0,0-4.93-7.45A14.42,14.42,0,0,0,143,259.2c-1.28-.76-2.61-1.47-3.94-2.16-2.67-1.39-5.39-2.7-8.1-4-1.35-.68-2.71-1.34-4-2.11a6.57,6.57,0,0,1-1-.65c-.3-.25-.54-.52-.83-.77-.55-.51-1.12-1-1.69-1.5-2.28-2-4.6-3.9-6.93-5.82,2.38,1.86,4.75,3.72,7.09,5.63.59.48,1.17,1,1.74,1.46.29.23.57.52.85.74a7.77,7.77,0,0,0,.93.59c1.31.72,2.68,1.34,4.05,2,2.73,1.27,5.49,2.5,8.21,3.82,1.36.66,2.72,1.33,4.05,2.08a14.93,14.93,0,0,1,3.78,2.71,54.11,54.11,0,0,1,5.27,7.49q2.35,3.89,4.43,8c.68,1.36,1.35,2.72,2,4.11.32.69.61,1.4.91,2.09s.58,1.36.92,2a56.82,56.82,0,0,0,4.57,7.63,77.62,77.62,0,0,0,5.58,7c1,1.1,2,2.18,3.08,3.21a18.88,18.88,0,0,0,3.46,2.39,79.13,79.13,0,0,0,8.05,3.79c2.76,1.16,5.56,2.25,8.37,3.34s5.64,2.16,8.47,3.38a16.66,16.66,0,0,1,4.27,2.55,37,37,0,0,1,3.41,3.32,85.76,85.76,0,0,1,5.8,7.2c1.81,2.48,3.52,5,5.18,7.6Z"/><path class="cls-7" d="M160.89,289a31.89,31.89,0,0,1-.16-5.94,14.4,14.4,0,0,1,1.53-5.9,16.55,16.55,0,0,0,1.51-10.6,20.6,20.6,0,0,0-.63-2.69c-.29-.9-.62-1.67-1-2.62a23.51,23.51,0,0,1-1.43-5.72,33.55,33.55,0,0,1-.25-5.84,28.58,28.58,0,0,1,.26-2.91c0-.24.08-.49.12-.73a4.48,4.48,0,0,0,.07-.64,7.51,7.51,0,0,0-.07-1.33,20,20,0,0,0-4.82-9.93,17.28,17.28,0,0,0-4.35-3.53,7,7,0,0,1-2-2.22c-.53-.82-1-1.67-1.43-2.52a46.85,46.85,0,0,0-2.85-4.93,14,14,0,0,0-1.84-2.15,10.23,10.23,0,0,0-1.09-.88,8.45,8.45,0,0,1-1.12-.94,17,17,0,0,1-3.15-4.82,33.84,33.84,0,0,1-1.93-5.41,33,33,0,0,0,2.08,5.34,17,17,0,0,0,3.22,4.66,9.14,9.14,0,0,0,1.1.87,9.92,9.92,0,0,1,1.16.89,14.81,14.81,0,0,1,1.95,2.16,44.35,44.35,0,0,1,3,4.92c.47.83.94,1.66,1.46,2.43a6.29,6.29,0,0,0,1.86,1.94,18.36,18.36,0,0,1,4.59,3.6,21.5,21.5,0,0,1,3.34,4.8,18.83,18.83,0,0,1,1.9,5.57,8.37,8.37,0,0,1,.11,1.52,5.16,5.16,0,0,1-.07.79c0,.23-.07.46-.1.69-.11.92-.17,1.86-.19,2.8a33,33,0,0,0,.35,5.62,22.24,22.24,0,0,0,1.45,5.36L164,262c.22.45.36.93.54,1.39a20.73,20.73,0,0,1,.73,2.89,21.48,21.48,0,0,1,.25,5.94A15.44,15.44,0,0,1,163.8,278a12.61,12.61,0,0,0-1.19,5.15,30,30,0,0,0,.26,5.53Z"/><path class="cls-7" d="M225.19,249.82c.75-5.59,1.29-11.27,1.5-16.9a75.77,75.77,0,0,0-.1-8.4,29.11,29.11,0,0,0-.59-4c-.09-.32-.16-.65-.26-.94s-.2-.6-.34-.94l-.78-2c-2.11-5.27-4.23-10.59-6.73-15.62a19.56,19.56,0,0,0-1-1.77,4.28,4.28,0,0,0-.26-.36,3.74,3.74,0,0,0-.31-.33l-.75-.77-3-3.1c-2-2.08-3.91-4.17-5.83-6.3a147.08,147.08,0,0,1-10.91-13.29,28.05,28.05,0,0,1-2.24-3.76,8.37,8.37,0,0,1-.66-2.17c-.11-.72-.19-1.44-.26-2.16-.26-2.86-.36-5.72-.46-8.57-.32-11.43-.29-22.84-.19-34.25.16,11.41.4,22.82,1,34.21.16,2.85.33,5.69.65,8.51a11.78,11.78,0,0,0,.92,4,26.52,26.52,0,0,0,2.23,3.54,147.26,147.26,0,0,0,11.1,12.9q2.94,3.11,5.94,6.14l3,3,.76.75c.13.13.25.23.43.44a5.16,5.16,0,0,1,.38.51,21.92,21.92,0,0,1,1.16,1.93c2.69,5.13,4.92,10.38,7.17,15.65l.83,2c.13.31.27.69.41,1.07s.22.74.33,1.11a29.82,29.82,0,0,1,.73,4.41,76.91,76.91,0,0,1,.27,8.7c-.11,5.78-.56,11.48-1.22,17.22Z"/></g></svg>