<?xml version="1.0" encoding="UTF-8" standalone="no"?>
<!DOCTYPE svg PUBLIC "-//W3C//DTD SVG 1.1//EN" "http://www.w3.org/Graphics/SVG/1.1/DTD/svg11.dtd">
<svg width="100%" height="100%" viewBox="0 0 512 512" version="1.1" xmlns="http://www.w3.org/2000/svg" xmlns:xlink="http://www.w3.org/1999/xlink" xml:space="preserve" xmlns:serif="http://www.serif.com/" style="fill-rule:evenodd;clip-rule:evenodd;stroke-linecap:round;stroke-linejoin:round;stroke-miterlimit:1.5;">
    <rect id="Artboard1" x="0" y="0" width="512" height="512" style="fill:none;"/>
    <clipPath id="_clip1">
        <rect id="Artboard11" serif:id="Artboard1" x="0" y="0" width="512" height="512"/>
    </clipPath>
    <g clip-path="url(#_clip1)">
        <rect x="0" y="0" width="512" height="512" style="fill:rgb(59,59,59);"/>
        <g id="Pine" transform="matrix(1.0928,0,0,1.0928,-761.127,93.386)">
            <g opacity="0.41">
                <g id="Trunk">
                    <g transform="matrix(0.897533,0,0,0.996813,85.9265,1.05443)">
                        <path d="M865.497,237.568L865.497,199.638C865.793,191.268 868.27,182.714 872.663,167.34" style="fill:none;stroke:white;stroke-width:6.43px;"/>
                    </g>
                    <g transform="matrix(0.897533,0,0,0.996813,85.9265,1.05443)">
                        <path d="M791.811,207.179C817.484,210.062 838.889,223.82 838.578,246.291L838.578,450.946L865.497,450.946L865.497,275.881C865.43,254.768 887.896,228.629 924.723,228.197" style="fill:none;stroke:white;stroke-width:6.43px;"/>
                    </g>
                    <path d="M915.678,215.833C896.535,217.05 877.422,224.25 862.739,237.865" style="fill:none;stroke:white;stroke-width:6.1px;"/>
                    <path d="M796.067,196C809.581,195.727 821.389,199.17 834.633,203.499C832.769,191.615 828.272,181.785 820.779,170.517" style="fill:none;stroke:white;stroke-width:6.1px;"/>
                    <path d="M853.462,166.067C853.039,171.741 851.785,178.44 849.868,185.958L837.821,170.517" style="fill:none;stroke:white;stroke-width:6.1px;"/>
                </g>
                <g id="Shade">
                    <g transform="matrix(0.706466,0.707735,-0.154958,0.149051,373.835,-432.781)">
                        <path d="M709.517,108.16L710.088,244.829" style="fill:none;stroke:white;stroke-width:4.23px;"/>
                    </g>
                    <g transform="matrix(0.706466,0.707735,-0.154958,0.149051,308.833,-414.335)">
                        <path d="M709.517,108.16L710.088,244.829" style="fill:none;stroke:white;stroke-width:4.23px;"/>
                    </g>
                    <g transform="matrix(0.706661,0.707541,-0.108312,0.102405,297.575,-383.598)">
                        <path d="M709.517,108.16L710.088,244.829" style="fill:none;stroke:white;stroke-width:4.28px;"/>
                    </g>
                    <g transform="matrix(0.706564,0.707638,-0.131543,0.125637,309.72,-373.466)">
                        <path d="M709.517,108.16L710.088,244.829" style="fill:none;stroke:white;stroke-width:4.26px;"/>
                    </g>
                    <g transform="matrix(0.706671,0.70753,-0.105814,0.0999074,314.928,-358.569)">
                        <path d="M709.517,108.16L710.088,244.829" style="fill:none;stroke:white;stroke-width:4.29px;"/>
                    </g>
                    <g transform="matrix(0.706466,0.707735,-0.154958,0.149051,344.051,-368.786)">
                        <path d="M709.517,108.16L710.088,244.829" style="fill:none;stroke:white;stroke-width:4.23px;"/>
                    </g>
                    <g transform="matrix(0.706738,0.707463,-0.0897141,0.0838078,345.947,-352.759)">
                        <path d="M709.517,108.16L710.088,244.829" style="fill:none;stroke:white;stroke-width:4.3px;"/>
                    </g>
                    <g transform="matrix(0.706731,0.70747,-0.0913906,0.0854843,331.148,-430.16)">
                        <path d="M709.517,108.16L710.088,244.829" style="fill:none;stroke:white;stroke-width:4.3px;"/>
                    </g>
                    <g transform="matrix(0.706716,0.707485,-0.0949327,0.0890264,322.61,-441.262)">
                        <path d="M709.517,108.16L710.088,244.829" style="fill:none;stroke:white;stroke-width:4.3px;"/>
                    </g>
                    <g transform="matrix(0.706671,0.70753,-0.105795,0.0998885,361.653,-402.626)">
                        <path d="M709.517,108.16L710.088,244.829" style="fill:none;stroke:white;stroke-width:4.29px;"/>
                    </g>
                    <g transform="matrix(0.706473,0.707728,-0.153206,0.1473,375.215,-397.463)">
                        <path d="M709.517,108.16L710.088,244.829" style="fill:none;stroke:white;stroke-width:4.24px;"/>
                    </g>
                    <g transform="matrix(0.70674,0.707461,-0.0892565,0.0833502,257.336,-314.971)">
                        <path d="M709.517,108.16L710.088,244.829" style="fill:none;stroke:white;stroke-width:4.3px;"/>
                    </g>
                    <g transform="matrix(0.706473,0.707728,-0.153206,0.1473,277.521,-317.562)">
                        <path d="M709.517,108.16L710.088,244.829" style="fill:none;stroke:white;stroke-width:4.24px;"/>
                    </g>
                    <g transform="matrix(0.706744,0.707458,-0.0884057,0.0824993,273.404,-295.154)">
                        <path d="M709.517,108.16L710.088,244.829" style="fill:none;stroke:white;stroke-width:4.3px;"/>
                    </g>
                    <g transform="matrix(0.706632,0.70757,-0.115235,0.109328,298.416,-300.872)">
                        <path d="M709.517,108.16L710.088,244.829" style="fill:none;stroke:white;stroke-width:4.28px;"/>
                    </g>
                    <g transform="matrix(0.706859,0.707342,-0.0608496,0.0549433,303.176,-288.08)">
                        <path d="M709.517,108.16L710.088,244.829" style="fill:none;stroke:white;stroke-width:4.32px;"/>
                    </g>
                    <g transform="matrix(0.706753,0.707448,-0.0860788,0.0801725,365.487,-367.986)">
                        <path d="M709.517,108.16L710.088,244.829" style="fill:none;stroke:white;stroke-width:4.3px;"/>
                    </g>
                    <g transform="matrix(0.706487,0.707714,-0.149856,0.14395,393.022,-373.981)">
                        <path d="M709.517,108.16L710.088,244.829" style="fill:none;stroke:white;stroke-width:4.24px;"/>
                    </g>
                    <g transform="matrix(0.706647,0.707554,-0.111486,0.105579,399.033,-359.854)">
                        <path d="M709.517,108.16L710.088,244.829" style="fill:none;stroke:white;stroke-width:4.28px;"/>
                    </g>
                    <g transform="matrix(0.706398,0.707803,-0.171181,0.165275,433.05,-373.806)">
                        <path d="M709.517,108.16L710.088,244.829" style="fill:none;stroke:white;stroke-width:4.21px;"/>
                    </g>
                    <g transform="matrix(0.706558,0.707643,-0.132917,0.12701,415.129,-314.593)">
                        <path d="M709.517,108.16L710.088,244.829" style="fill:none;stroke:white;stroke-width:4.26px;"/>
                    </g>
                    <g transform="matrix(0.706763,0.707438,-0.0837111,0.0778048,409.654,-271.717)">
                        <path d="M709.517,108.16L710.088,244.829" style="fill:none;stroke:white;stroke-width:4.3px;"/>
                    </g>
                    <g transform="matrix(0.706452,0.707749,-0.15821,0.152303,441.828,-284.082)">
                        <path d="M709.517,108.16L710.088,244.829" style="fill:none;stroke:white;stroke-width:4.23px;"/>
                    </g>
                    <g transform="matrix(0.706651,0.707551,-0.110691,0.104785,447.719,-270.025)">
                        <path d="M709.517,108.16L710.088,244.829" style="fill:none;stroke:white;stroke-width:4.28px;"/>
                    </g>
                    <g transform="matrix(0.70656,0.707641,-0.132307,0.1264,475.17,-276.026)">
                        <path d="M709.517,108.16L710.088,244.829" style="fill:none;stroke:white;stroke-width:4.26px;"/>
                    </g>
                    <g transform="matrix(0.706691,0.70751,-0.100973,0.0950663,436.253,-356.481)">
                        <path d="M709.517,108.16L710.088,244.829" style="fill:none;stroke:white;stroke-width:4.29px;"/>
                    </g>
                </g>
                <g id="Crown">
                    <path d="M885.167,237.792C888.357,249.304 898.919,257.766 911.441,257.766L952.534,257.766C967.58,257.766 979.794,245.551 979.794,230.506L979.794,214.032C979.794,198.986 967.58,186.771 952.534,186.771L911.441,186.771C896.396,186.771 884.181,198.986 884.181,214.032L884.181,223.645" style="fill:none;stroke:white;stroke-width:6.1px;"/>
                    <g transform="matrix(1.24891,0,0,1.44125,-266.714,-202.895)">
                        <path d="M979.794,214.032C979.794,198.986 965.698,186.771 948.336,186.771L915.64,186.771C898.277,186.771 884.181,198.986 884.181,214.032L884.181,230.506C884.181,245.551 898.277,257.766 915.64,257.766L948.336,257.766C965.698,257.766 979.794,245.551 979.794,230.506L979.794,214.032Z" style="fill:none;stroke:white;stroke-width:4.52px;"/>
                    </g>
                    <g transform="matrix(0.855805,0,0,1.05119,44.1533,-145.249)">
                        <path d="M975.88,201.237C970.246,192.633 959.113,186.771 946.31,186.771L917.665,186.771C899.185,186.771 884.181,198.986 884.181,214.032L884.181,226.8" style="fill:none;stroke:white;stroke-width:6.36px;"/>
                    </g>
                    <g transform="matrix(0.995168,0,0,1.08997,-107.526,-110.441)">
                        <path d="M951.689,186.771L914.038,186.771C897.56,186.771 884.181,198.986 884.181,214.032L884.181,230.506C884.181,245.551 897.56,257.766 914.038,257.766L949.937,257.766C957.369,257.766 964.17,255.281 969.398,251.173" style="fill:none;stroke:white;stroke-width:5.85px;"/>
                    </g>
                    <g transform="matrix(0.815573,0,0,0.708435,15.9213,45.7429)">
                        <path d="M979.791,214.821C980.014,198.695 969.184,186.771 956.115,186.771L907.86,186.771C894.791,186.771 884.181,198.986 884.181,214.032L884.181,230.506C884.181,245.551 894.791,257.766 907.86,257.766L956.115,257.766C967.742,257.766 977.422,248.099 979.418,235.371" style="fill:none;stroke:white;stroke-width:7.99px;"/>
                    </g>
                </g>
            </g>
        </g>
        <g id="Pine1" serif:id="Pine" transform="matrix(1.29794,0,0,1.29794,-792.998,1.20026)">
            <g id="Crown1" serif:id="Crown">
                <path d="M885.167,237.792C888.357,249.304 898.919,257.766 911.441,257.766L952.534,257.766C967.58,257.766 979.794,245.551 979.794,230.506L979.794,214.032C979.794,198.986 967.58,186.771 952.534,186.771L911.441,186.771C896.396,186.771 884.181,198.986 884.181,214.032L884.181,223.645" style="fill:none;stroke:white;stroke-width:5.14px;"/>
                <g transform="matrix(0.855805,0,0,1.05119,44.1533,-145.249)">
                    <path d="M975.88,201.237C970.246,192.633 959.113,186.771 946.31,186.771L917.665,186.771C899.185,186.771 884.181,198.986 884.181,214.032L884.181,226.8" style="fill:none;stroke:white;stroke-width:5.36px;"/>
                </g>
                <g transform="matrix(0.995168,0,0,1.08997,-107.526,-110.441)">
                    <path d="M951.689,186.771L914.038,186.771C897.56,186.771 884.181,198.986 884.181,214.032L884.181,230.506C884.181,245.551 897.56,257.766 914.038,257.766L949.937,257.766C957.369,257.766 964.17,255.281 969.398,251.173" style="fill:rgb(59,59,59);stroke:white;stroke-width:4.92px;"/>
                </g>
                <g transform="matrix(0.815573,0,0,0.708435,15.9213,45.7429)">
                    <path d="M979.791,214.821C980.014,198.695 969.184,186.771 956.115,186.771L907.86,186.771C894.791,186.771 884.181,198.986 884.181,214.032L884.181,230.506C884.181,245.551 894.791,257.766 907.86,257.766L956.115,257.766C967.742,257.766 977.422,248.099 979.418,235.371" style="fill:rgb(59,59,59);stroke:white;stroke-width:6.72px;"/>
                </g>
                <g transform="matrix(1.24891,0,0,1.44125,-266.714,-202.895)">
                    <path d="M979.794,214.032C979.794,198.986 965.698,186.771 948.336,186.771L915.64,186.771C898.277,186.771 884.181,198.986 884.181,214.032L884.181,230.506C884.181,245.551 898.277,257.766 915.64,257.766L948.336,257.766C965.698,257.766 979.794,245.551 979.794,230.506L979.794,214.032Z" style="fill:rgb(59,59,59);stroke:white;stroke-width:3.81px;"/>
                </g>
            </g>
            <g transform="matrix(0.897533,0,0,0.996813,85.9265,1.05443)">
                <g id="Trunk1" serif:id="Trunk">
                    <path d="M924.48,215.465C903.152,216.686 881.856,223.91 865.497,237.568L865.497,199.638C865.793,191.268 868.27,182.714 872.663,167.34L855.161,165.54C854.69,171.233 853.293,177.953 851.156,185.494L837.735,170.005L818.747,170.005C827.095,181.309 832.106,191.17 834.182,203.092C819.426,198.75 806.27,195.295 791.213,195.569L791.811,207.179C817.484,210.062 838.889,223.82 838.578,246.291L838.578,450.946L865.497,450.946L865.497,275.881C865.43,254.768 887.896,228.629 924.723,228.197L924.48,215.465Z" style="fill:rgb(59,59,59);"/>
                </g>
            </g>
            <g id="Trunk2" serif:id="Trunk">
                <g transform="matrix(0.897533,0,0,0.996813,85.9265,1.05443)">
                    <path d="M865.497,237.568L865.497,199.638C865.793,191.268 868.27,182.714 872.663,167.34" style="fill:none;stroke:white;stroke-width:5.42px;"/>
                </g>
                <g transform="matrix(0.897533,0,0,0.996813,85.9265,1.05443)">
                    <path d="M791.811,207.179C817.484,210.062 838.889,223.82 838.578,246.291L838.578,450.946L865.497,450.946L865.497,275.881C865.43,254.768 887.896,228.629 924.723,228.197" style="fill:none;stroke:white;stroke-width:5.42px;"/>
                </g>
                <path d="M915.678,215.833C896.535,217.05 877.422,224.25 862.739,237.865" style="fill:none;stroke:white;stroke-width:5.14px;"/>
                <path d="M796.067,196C809.581,195.727 821.389,199.17 834.633,203.499C832.769,191.615 828.272,181.785 820.779,170.517" style="fill:none;stroke:white;stroke-width:5.14px;"/>
                <path d="M853.462,166.067C853.039,171.741 851.785,178.44 849.868,185.958L837.821,170.517" style="fill:none;stroke:white;stroke-width:5.14px;"/>
            </g>
            <g id="Shade1" serif:id="Shade">
                <g transform="matrix(0.706466,0.707735,-0.154958,0.149051,373.835,-432.781)">
                    <path d="M709.517,108.16L710.088,244.829" style="fill:none;stroke:white;stroke-width:3.56px;"/>
                </g>
                <g transform="matrix(0.706466,0.707735,-0.154958,0.149051,308.833,-414.335)">
                    <path d="M709.517,108.16L710.088,244.829" style="fill:none;stroke:white;stroke-width:3.56px;"/>
                </g>
                <g transform="matrix(0.706661,0.707541,-0.108312,0.102405,297.575,-383.598)">
                    <path d="M709.517,108.16L710.088,244.829" style="fill:none;stroke:white;stroke-width:3.61px;"/>
                </g>
                <g transform="matrix(0.706564,0.707638,-0.131543,0.125637,309.72,-373.466)">
                    <path d="M709.517,108.16L710.088,244.829" style="fill:none;stroke:white;stroke-width:3.59px;"/>
                </g>
                <g transform="matrix(0.706671,0.70753,-0.105814,0.0999074,314.928,-358.569)">
                    <path d="M709.517,108.16L710.088,244.829" style="fill:none;stroke:white;stroke-width:3.61px;"/>
                </g>
                <g transform="matrix(0.706466,0.707735,-0.154958,0.149051,344.051,-368.786)">
                    <path d="M709.517,108.16L710.088,244.829" style="fill:none;stroke:white;stroke-width:3.56px;"/>
                </g>
                <g transform="matrix(0.706738,0.707463,-0.0897141,0.0838078,345.947,-352.759)">
                    <path d="M709.517,108.16L710.088,244.829" style="fill:none;stroke:white;stroke-width:3.62px;"/>
                </g>
                <g transform="matrix(0.706731,0.70747,-0.0913906,0.0854843,331.148,-430.16)">
                    <path d="M709.517,108.16L710.088,244.829" style="fill:none;stroke:white;stroke-width:3.62px;"/>
                </g>
                <g transform="matrix(0.706716,0.707485,-0.0949327,0.0890264,322.61,-441.262)">
                    <path d="M709.517,108.16L710.088,244.829" style="fill:none;stroke:white;stroke-width:3.62px;"/>
                </g>
                <g transform="matrix(0.706671,0.70753,-0.105795,0.0998885,361.653,-402.626)">
                    <path d="M709.517,108.16L710.088,244.829" style="fill:none;stroke:white;stroke-width:3.61px;"/>
                </g>
                <g transform="matrix(0.706473,0.707728,-0.153206,0.1473,375.215,-397.463)">
                    <path d="M709.517,108.16L710.088,244.829" style="fill:none;stroke:white;stroke-width:3.57px;"/>
                </g>
                <g transform="matrix(0.70674,0.707461,-0.0892565,0.0833502,257.336,-314.971)">
                    <path d="M709.517,108.16L710.088,244.829" style="fill:none;stroke:white;stroke-width:3.62px;"/>
                </g>
                <g transform="matrix(0.706473,0.707728,-0.153206,0.1473,277.521,-317.562)">
                    <path d="M709.517,108.16L710.088,244.829" style="fill:none;stroke:white;stroke-width:3.57px;"/>
                </g>
                <g transform="matrix(0.706744,0.707458,-0.0884057,0.0824993,273.404,-295.154)">
                    <path d="M709.517,108.16L710.088,244.829" style="fill:none;stroke:white;stroke-width:3.62px;"/>
                </g>
                <g transform="matrix(0.706632,0.70757,-0.115235,0.109328,298.416,-300.872)">
                    <path d="M709.517,108.16L710.088,244.829" style="fill:none;stroke:white;stroke-width:3.6px;"/>
                </g>
                <g transform="matrix(0.706859,0.707342,-0.0608496,0.0549433,303.176,-288.08)">
                    <path d="M709.517,108.16L710.088,244.829" style="fill:none;stroke:white;stroke-width:3.63px;"/>
                </g>
                <g transform="matrix(0.706753,0.707448,-0.0860788,0.0801725,365.487,-367.986)">
                    <path d="M709.517,108.16L710.088,244.829" style="fill:none;stroke:white;stroke-width:3.62px;"/>
                </g>
                <g transform="matrix(0.706487,0.707714,-0.149856,0.14395,393.022,-373.981)">
                    <path d="M709.517,108.16L710.088,244.829" style="fill:none;stroke:white;stroke-width:3.57px;"/>
                </g>
                <g transform="matrix(0.706647,0.707554,-0.111486,0.105579,399.033,-359.854)">
                    <path d="M709.517,108.16L710.088,244.829" style="fill:none;stroke:white;stroke-width:3.6px;"/>
                </g>
                <g transform="matrix(0.706398,0.707803,-0.171181,0.165275,433.05,-373.806)">
                    <path d="M709.517,108.16L710.088,244.829" style="fill:none;stroke:white;stroke-width:3.55px;"/>
                </g>
                <g transform="matrix(0.706558,0.707643,-0.132917,0.12701,415.129,-314.593)">
                    <path d="M709.517,108.16L710.088,244.829" style="fill:none;stroke:white;stroke-width:3.59px;"/>
                </g>
                <g transform="matrix(0.706763,0.707438,-0.0837111,0.0778048,409.654,-271.717)">
                    <path d="M709.517,108.16L710.088,244.829" style="fill:none;stroke:white;stroke-width:3.62px;"/>
                </g>
                <g transform="matrix(0.706452,0.707749,-0.15821,0.152303,441.828,-284.082)">
                    <path d="M709.517,108.16L710.088,244.829" style="fill:none;stroke:white;stroke-width:3.56px;"/>
                </g>
                <g transform="matrix(0.706651,0.707551,-0.110691,0.104785,447.719,-270.025)">
                    <path d="M709.517,108.16L710.088,244.829" style="fill:none;stroke:white;stroke-width:3.6px;"/>
                </g>
                <g transform="matrix(0.70656,0.707641,-0.132307,0.1264,475.17,-276.026)">
                    <path d="M709.517,108.16L710.088,244.829" style="fill:none;stroke:white;stroke-width:3.59px;"/>
                </g>
                <g transform="matrix(0.706691,0.70751,-0.100973,0.0950663,436.253,-356.481)">
                    <path d="M709.517,108.16L710.088,244.829" style="fill:none;stroke:white;stroke-width:3.61px;"/>
                </g>
            </g>
        </g>
    </g>
</svg>
